<?xml version="1.0" encoding="us-ascii" standalone="no"?><svg xmlns="http://www.w3.org/2000/svg" xmlns:xlink="http://www.w3.org/1999/xlink" contentStyleType="text/css" height="863px" preserveAspectRatio="none" style="width:557px;height:863px;background:#FFFFFF;" version="1.1" viewBox="0 0 557 863" width="557px" zoomAndPan="magnify"><defs/><g><rect fill="#0D0887" height="35.0938" rx="12.5" ry="12.5" style="stroke:#181818;stroke-width:0.5;" width="149" x="204" y="11"/><text fill="#FFFFFF" font-family="sans-serif" font-size="12" lengthAdjust="spacing" textLength="129" x="214" y="33.457">Bulk sample or thin film</text><rect fill="#C0C0C0" height="796.3906" rx="5" ry="5" style="stroke:#0000CD;stroke-width:1.5;" width="535" x="11" y="56.0938"/><path d="M124,56.0938 L124,66.7031 L114,76.7031 L11,76.7031 " fill="none" style="stroke:#0000CD;stroke-width:1.5;"/><text fill="#0000CD" font-family="sans-serif" font-size="14" lengthAdjust="spacing" textLength="103" x="14" y="71.627">SEM-EBSD-EDX</text><rect fill="#9C179E" height="65.2813" rx="12.5" ry="12.5" style="stroke:#181818;stroke-width:0.5;" width="231" x="163" y="93.7031"/><text fill="#FFFFFF" font-family="sans-serif" font-size="12" lengthAdjust="spacing" textLength="166" x="195.5" y="116.1602">Set up experimental geometry:</text><text fill="#FFFFFF" font-family="sans-serif" font-size="12" lengthAdjust="spacing" textLength="208" x="176" y="131.2539">sample tilt (&#176;), working distance (mm),</text><text fill="#FFFFFF" font-family="sans-serif" font-size="12" lengthAdjust="spacing" textLength="127" x="215" y="146.3477">detector distance (mm)</text><rect fill="#9C179E" height="35.0938" rx="12.5" ry="12.5" style="stroke:#181818;stroke-width:0.5;" width="232" x="162.5" y="178.9844"/><text fill="#FFFFFF" font-family="sans-serif" font-size="12" lengthAdjust="spacing" textLength="212" x="172.5" y="201.4414">Acquire electron image (SE, BSE, FSE)</text><rect fill="#ED7953" height="35.0938" rx="12.5" ry="12.5" style="stroke:#181818;stroke-width:0.5;" width="118" x="219.5" y="234.0781"/><text fill="#FFFFFF" font-family="sans-serif" font-size="12" lengthAdjust="spacing" textLength="98" x="229.5" y="256.5352">Electron image(s)</text><rect fill="#9C179E" height="50.1875" rx="12.5" ry="12.5" style="stroke:#181818;stroke-width:0.5;" width="204" x="176.5" y="289.1719"/><text fill="#FFFFFF" font-family="sans-serif" font-size="12" lengthAdjust="spacing" textLength="183" x="187" y="311.6289">Define rectangular ROI, step size,</text><text fill="#FFFFFF" font-family="sans-serif" font-size="12" lengthAdjust="spacing" textLength="184" x="186.5" y="326.7227">detector and indexing parameters</text><line style="stroke:#181818;stroke-width:1.5;" x1="147" x2="416.5" y1="359.3594" y2="359.3594"/><rect fill="#9C179E" height="35.0938" rx="12.5" ry="12.5" style="stroke:#181818;stroke-width:0.5;" width="248" x="23" y="386.9063"/><text fill="#FFFFFF" font-family="sans-serif" font-size="12" lengthAdjust="spacing" textLength="228" x="33" y="409.3633">Acquire EBSD patterns at all points in ROI</text><rect fill="#ED7953" height="35.0938" rx="12.5" ry="12.5" style="stroke:#181818;stroke-width:0.5;" width="171" x="61.5" y="449.5469"/><text fill="#FFFFFF" font-family="sans-serif" font-size="12" lengthAdjust="spacing" textLength="151" x="71.5" y="472.0039">EBSD pattern for each point</text><rect fill="#F0F921" height="35.0938" rx="12.5" ry="12.5" style="stroke:#181818;stroke-width:0.5;" width="171" x="61.5" y="512.1875"/><text fill="#000000" font-family="sans-serif" font-size="12" lengthAdjust="spacing" textLength="151" x="71.5" y="534.6445">Hough indexing (automatic)</text><rect fill="#9C179E" height="35.0938" rx="12.5" ry="12.5" style="stroke:#181818;stroke-width:0.5;" width="235" x="299" y="379.3594"/><text fill="#FFFFFF" font-family="sans-serif" font-size="12" lengthAdjust="spacing" textLength="215" x="309" y="401.8164">Acquire EDX spectra at all points in ROI</text><rect fill="#ED7953" height="35.0938" rx="12.5" ry="12.5" style="stroke:#181818;stroke-width:0.5;" width="176" x="328.5" y="442"/><text fill="#FFFFFF" font-family="sans-serif" font-size="12" lengthAdjust="spacing" textLength="156" x="338.5" y="464.457">EDX spectrum for each point</text><rect fill="#F0F921" height="50.1875" rx="12.5" ry="12.5" style="stroke:#181818;stroke-width:0.5;" width="225" x="304" y="504.6406"/><text fill="#000000" font-family="sans-serif" font-size="12" lengthAdjust="spacing" textLength="179" x="314" y="527.0977">Analyse composition (automatic)</text><text fill="#000000" font-family="sans-serif" font-size="12" font-style="italic" lengthAdjust="spacing" textLength="20" x="496" y="527.0977">e.g.</text><text fill="#000000" font-family="sans-serif" font-size="12" lengthAdjust="spacing" textLength="3" x="516" y="527.0977">:</text><text fill="#000000" font-family="sans-serif" font-size="12" lengthAdjust="spacing" textLength="150" x="341.5" y="542.1914">no. counts for element 1 &gt; x</text><line style="stroke:#181818;stroke-width:1.5;" x1="147" x2="416.5" y1="574.8281" y2="574.8281"/><rect fill="#F0F921" height="50.1875" rx="12.5" ry="12.5" style="stroke:#181818;stroke-width:0.5;" width="254" x="151.5" y="594.8281"/><text fill="#000000" font-family="sans-serif" font-size="12" lengthAdjust="spacing" textLength="234" x="161.5" y="617.2852">Assign phase and orientation to each point</text><text fill="#000000" font-family="sans-serif" font-size="12" lengthAdjust="spacing" textLength="62" x="247.5" y="632.3789">(automatic)</text><rect fill="#F0F921" height="50.1875" rx="12.5" ry="12.5" style="stroke:#0000FF;stroke-width:2.0;" width="167" x="195" y="665.0156"/><text fill="#000000" font-family="sans-serif" font-size="12" lengthAdjust="spacing" textLength="147" x="205" y="687.4727">Euler angles and phase ID</text><text fill="#000000" font-family="sans-serif" font-size="12" lengthAdjust="spacing" textLength="115" x="221" y="702.5664">for each point in map</text><rect fill="#F0F921" height="35.0938" rx="12.5" ry="12.5" style="stroke:#181818;stroke-width:0.5;" width="240" x="158.5" y="735.2031"/><text fill="#000000" font-family="sans-serif" font-size="12" lengthAdjust="spacing" textLength="220" x="168.5" y="757.6602">Analysis of orientations (user controlled)</text><rect fill="#F0F921" height="50.1875" rx="12.5" ry="12.5" style="stroke:#0000FF;stroke-width:2.0;" width="223" x="167" y="790.2969"/><text fill="#000000" font-family="sans-serif" font-size="12" lengthAdjust="spacing" textLength="167" x="195" y="812.7539">Orientation maps, Pole figures</text><text fill="#000000" font-family="sans-serif" font-size="12" lengthAdjust="spacing" textLength="124" x="177" y="827.8477">Quantitative measures</text><text fill="#000000" font-family="sans-serif" font-size="12" font-style="italic" lengthAdjust="spacing" textLength="20" x="304" y="827.8477">e.g.</text><text fill="#000000" font-family="sans-serif" font-size="12" lengthAdjust="spacing" textLength="53" x="327" y="827.8477">grain size</text><line style="stroke:#181818;stroke-width:1.0;" x1="278.5" x2="278.5" y1="158.9844" y2="178.9844"/><polygon fill="#181818" points="274.5,168.9844,278.5,178.9844,282.5,168.9844,278.5,172.9844" style="stroke:#181818;stroke-width:1.0;"/><line style="stroke:#181818;stroke-width:1.0;" x1="278.5" x2="278.5" y1="214.0781" y2="234.0781"/><polygon fill="#181818" points="274.5,224.0781,278.5,234.0781,282.5,224.0781,278.5,228.0781" style="stroke:#181818;stroke-width:1.0;"/><line style="stroke:#181818;stroke-width:1.0;" x1="278.5" x2="278.5" y1="269.1719" y2="289.1719"/><polygon fill="#181818" points="274.5,279.1719,278.5,289.1719,282.5,279.1719,278.5,283.1719" style="stroke:#181818;stroke-width:1.0;"/><line style="stroke:#181818;stroke-width:1.0;" x1="147" x2="147" y1="422" y2="449.5469"/><polygon fill="#181818" points="143,439.5469,147,449.5469,151,439.5469,147,443.5469" style="stroke:#181818;stroke-width:1.0;"/><line style="stroke:#181818;stroke-width:1.0;" x1="147" x2="147" y1="484.6406" y2="512.1875"/><polygon fill="#181818" points="143,502.1875,147,512.1875,151,502.1875,147,506.1875" style="stroke:#181818;stroke-width:1.0;"/><line style="stroke:#181818;stroke-width:1.0;" x1="416.5" x2="416.5" y1="414.4531" y2="442"/><polygon fill="#181818" points="412.5,432,416.5,442,420.5,432,416.5,436" style="stroke:#181818;stroke-width:1.0;"/><line style="stroke:#181818;stroke-width:1.0;" x1="416.5" x2="416.5" y1="477.0938" y2="504.6406"/><polygon fill="#181818" points="412.5,494.6406,416.5,504.6406,420.5,494.6406,416.5,498.6406" style="stroke:#181818;stroke-width:1.0;"/><line style="stroke:#181818;stroke-width:1.0;" x1="147" x2="147" y1="360.8594" y2="386.9063"/><polygon fill="#181818" points="143,376.9063,147,386.9063,151,376.9063,147,380.9063" style="stroke:#181818;stroke-width:1.0;"/><line style="stroke:#181818;stroke-width:1.0;" x1="416.5" x2="416.5" y1="360.8594" y2="379.3594"/><polygon fill="#181818" points="412.5,369.3594,416.5,379.3594,420.5,369.3594,416.5,373.3594" style="stroke:#181818;stroke-width:1.0;"/><line style="stroke:#181818;stroke-width:1.0;" x1="147" x2="147" y1="547.2813" y2="574.8281"/><polygon fill="#181818" points="143,564.8281,147,574.8281,151,564.8281,147,568.8281" style="stroke:#181818;stroke-width:1.0;"/><line style="stroke:#181818;stroke-width:1.0;" x1="416.5" x2="416.5" y1="554.8281" y2="574.8281"/><polygon fill="#181818" points="412.5,564.8281,416.5,574.8281,420.5,564.8281,416.5,568.8281" style="stroke:#181818;stroke-width:1.0;"/><line style="stroke:#181818;stroke-width:1.0;" x1="278.5" x2="278.5" y1="339.3594" y2="359.3594"/><polygon fill="#181818" points="274.5,349.3594,278.5,359.3594,282.5,349.3594,278.5,353.3594" style="stroke:#181818;stroke-width:1.0;"/><line style="stroke:#181818;stroke-width:1.0;" x1="278.5" x2="278.5" y1="576.3281" y2="594.8281"/><polygon fill="#181818" points="274.5,584.8281,278.5,594.8281,282.5,584.8281,278.5,588.8281" style="stroke:#181818;stroke-width:1.0;"/><line style="stroke:#181818;stroke-width:1.0;" x1="278.5" x2="278.5" y1="645.0156" y2="665.0156"/><polygon fill="#181818" points="274.5,655.0156,278.5,665.0156,282.5,655.0156,278.5,659.0156" style="stroke:#181818;stroke-width:1.0;"/><line style="stroke:#181818;stroke-width:1.0;" x1="278.5" x2="278.5" y1="715.2031" y2="735.2031"/><polygon fill="#181818" points="274.5,725.2031,278.5,735.2031,282.5,725.2031,278.5,729.2031" style="stroke:#181818;stroke-width:1.0;"/><line style="stroke:#181818;stroke-width:1.0;" x1="278.5" x2="278.5" y1="770.2969" y2="790.2969"/><polygon fill="#181818" points="274.5,780.2969,278.5,790.2969,282.5,780.2969,278.5,784.2969" style="stroke:#181818;stroke-width:1.0;"/><line style="stroke:#181818;stroke-width:1.0;" x1="278.5" x2="278.5" y1="46.0938" y2="93.7031"/><polygon fill="#181818" points="274.5,83.7031,278.5,93.7031,282.5,83.7031,278.5,87.7031" style="stroke:#181818;stroke-width:1.0;"/><!--SRC=[bLHDRnen4BtpAwOtelBLAqL8KBPA3X5jKQKUaD1ecJLM_5MFtP3- -euN9ImjaL9fnGhxpRptni_xBXt84jolFzqkLejXCCWMeOdUmcWqbgVTvzvqcSq3CDfW27o4TD0E6ctiHvZDCbFSrSWqd_TKz3d0fheVLilDQbYjVWYWNTpLtXYga_PES03J3IKGB1q3HMt99JIWo5jAyMcwTSziIPi4_TdtzvF9SZA_6S2ZZm_QATXhJkXgWhwrDuEjsrEIzYBkOgC8F5ESc1VrpwmZ0HKzqJlG5fN0DzK0bkNdywQwMbXT5FIv1KLytEqnuGcoeaOxWYX0T2eRZF1jVJS0JXI0zM_gAaMt1or_ZyLFm8XYdY9VeUPWT99tHtqPi1GbgN0Cc02DWU2rIonD2-kLFiL4fmuQKK5O7qw5_zWH-AtFwd1MsSUSlCMawzPyGUv2z3Kno_PPAw12xVvIB6dWK4Q8_wFtfIhRD-XTE3HFJ51x6pphahUkQ1YFQQH6ux54pFcHm78HqFOrL7ZX0ypX-9evaYDxFepfGjQLWt2GyBU7wQCkGMv9a-yetRet36vQPKCb5SeGj_rEdUzMMtTfl0pCOYYD96veEW4y-TSClkdAOUYNUof-dIHORkB-THdhZWjXuG5yyN8J6wro9DwwhnbTqWNmYy0ISbb-6IoeA2VVPlsAFic-kEYLCRQVXJy0]--></g></svg>