<?xml version="1.0" encoding="us-ascii" standalone="no"?><svg xmlns="http://www.w3.org/2000/svg" xmlns:xlink="http://www.w3.org/1999/xlink" contentStyleType="text/css" height="638px" preserveAspectRatio="none" style="width:769px;height:638px;background:#FFFFFF;" version="1.1" viewBox="0 0 769 638" width="769px" zoomAndPan="magnify"><defs/><g><rect fill="#0D0887" height="50.1875" rx="12.5" ry="12.5" style="stroke:#181818;stroke-width:0.5;" width="92" x="336.5" y="11"/><text fill="#FFFFFF" font-family="sans-serif" font-size="12" lengthAdjust="spacing" textLength="72" x="346.5" y="33.457">Magnetic film</text><text fill="#FFFFFF" font-family="sans-serif" font-size="12" lengthAdjust="spacing" textLength="62" x="351.5" y="48.5508">specimens</text><line style="stroke:#181818;stroke-width:1.5;" x1="260.5" x2="646" y1="81.1875" y2="81.1875"/><rect fill="#0D0887" height="65.2813" rx="12.5" ry="12.5" style="stroke:#181818;stroke-width:0.5;" width="132" x="194.5" y="101.1875"/><text fill="#FFFFFF" font-family="sans-serif" font-size="12" lengthAdjust="spacing" textLength="112" x="204.5" y="123.6445">Electron-tranpsarent</text><text fill="#FFFFFF" font-family="sans-serif" font-size="12" lengthAdjust="spacing" textLength="69" x="226" y="138.7383">lamella from</text><text fill="#FFFFFF" font-family="sans-serif" font-size="12" lengthAdjust="spacing" textLength="74" x="223.5" y="153.832">magnetic film</text><rect fill="#C0C0C0" height="449.1094" rx="5" ry="5" style="stroke:#0000CD;stroke-width:1.5;" width="512.5" x="11" y="178.5547"/><path d="M50,178.5547 L50,189.1641 L40,199.1641 L11,199.1641 " fill="none" style="stroke:#0000CD;stroke-width:1.5;"/><text fill="#0000CD" font-family="sans-serif" font-size="14" lengthAdjust="spacing" textLength="29" x="14" y="194.0879">TEM</text><line style="stroke:#181818;stroke-width:1.5;" x1="93" x2="425.5" y1="216.1641" y2="216.1641"/><rect fill="#F5F5DC" height="362.9063" rx="5" ry="5" style="stroke:#1E90FF;stroke-width:1.5;" width="140" x="23" y="245.2109"/><path d="M82,245.2109 L82,255.8203 L72,265.8203 L23,265.8203 " fill="none" style="stroke:#1E90FF;stroke-width:1.5;"/><text fill="#1E90FF" font-family="sans-serif" font-size="14" lengthAdjust="spacing" textLength="49" x="26" y="260.7441">Imaging</text><rect fill="#9C179E" height="50.1875" rx="12.5" ry="12.5" style="stroke:#181818;stroke-width:0.5;" width="110" x="38" y="282.8203"/><text fill="#FFFFFF" font-family="sans-serif" font-size="12" lengthAdjust="spacing" textLength="86" x="50" y="305.2773">Acquire images</text><text fill="#FFFFFF" font-family="sans-serif" font-size="12" lengthAdjust="spacing" textLength="90" x="48" y="320.3711">(BF, DF, HAADF)</text><rect fill="#ED7953" height="35.0938" rx="12.5" ry="12.5" style="stroke:#181818;stroke-width:0.5;" width="110" x="38" y="368.0078"/><text fill="#FFFFFF" font-family="sans-serif" font-size="12" lengthAdjust="spacing" textLength="90" x="48" y="390.4648">Electron images</text><rect fill="#F0F921" height="50.1875" rx="12.5" ry="12.5" style="stroke:#181818;stroke-width:0.5;" width="120" x="33" y="438.1016"/><text fill="#000000" font-family="sans-serif" font-size="12" lengthAdjust="spacing" textLength="100" x="43" y="460.5586">Image processing</text><text fill="#000000" font-family="sans-serif" font-size="12" lengthAdjust="spacing" textLength="70" x="58" y="475.6523">and analysis</text><rect fill="#F0F921" height="65.2813" rx="12.5" ry="12.5" style="stroke:#0000FF;stroke-width:2.0;" width="119" x="33.5" y="523.2891"/><text fill="#000000" font-family="sans-serif" font-size="12" lengthAdjust="spacing" textLength="58" x="64" y="545.7461">Grain size,</text><text fill="#000000" font-family="sans-serif" font-size="12" lengthAdjust="spacing" textLength="65" x="60.5" y="560.8398">morphology</text><text fill="#000000" font-family="sans-serif" font-size="12" lengthAdjust="spacing" textLength="99" x="43.5" y="575.9336">phase distribution</text><rect fill="#F5F5DC" height="378" rx="5" ry="5" style="stroke:#1E90FF;stroke-width:1.5;" width="143" x="173" y="237.6641"/><path d="M247,237.6641 L247,248.2734 L237,258.2734 L173,258.2734 " fill="none" style="stroke:#1E90FF;stroke-width:1.5;"/><text fill="#1E90FF" font-family="sans-serif" font-size="14" lengthAdjust="spacing" textLength="64" x="176" y="253.1973">Diffraction</text><rect fill="#9C179E" height="80.375" rx="12.5" ry="12.5" style="stroke:#181818;stroke-width:0.5;" width="108" x="190.5" y="275.2734"/><text fill="#FFFFFF" font-family="sans-serif" font-size="12" lengthAdjust="spacing" textLength="88" x="200.5" y="297.7305">Acquire electron</text><text fill="#FFFFFF" font-family="sans-serif" font-size="12" lengthAdjust="spacing" textLength="53" x="218" y="312.8242">diffraction</text><text fill="#FFFFFF" font-family="sans-serif" font-size="12" lengthAdjust="spacing" textLength="45" x="222" y="327.918">patterns</text><text fill="#FFFFFF" font-family="sans-serif" font-size="12" lengthAdjust="spacing" textLength="72" x="208.5" y="343.0117">(SAD, CBED)</text><rect fill="#ED7953" height="35.0938" rx="12.5" ry="12.5" style="stroke:#181818;stroke-width:0.5;" width="123" x="183" y="390.6484"/><text fill="#FFFFFF" font-family="sans-serif" font-size="12" lengthAdjust="spacing" textLength="103" x="193" y="413.1055">Diffraction patterns</text><rect fill="#F0F921" height="35.0938" rx="12.5" ry="12.5" style="stroke:#181818;stroke-width:0.5;" width="97" x="196" y="460.7422"/><text fill="#000000" font-family="sans-serif" font-size="12" lengthAdjust="spacing" textLength="77" x="206" y="483.1992">Index patterns</text><rect fill="#F0F921" height="65.2813" rx="12.5" ry="12.5" style="stroke:#0000FF;stroke-width:2.0;" width="119" x="185" y="530.8359"/><text fill="#000000" font-family="sans-serif" font-size="12" lengthAdjust="spacing" textLength="89" x="200" y="553.293">crystal structure,</text><text fill="#000000" font-family="sans-serif" font-size="12" lengthAdjust="spacing" textLength="99" x="195" y="568.3867">lattice parameters</text><text fill="#000000" font-family="sans-serif" font-size="12" lengthAdjust="spacing" textLength="96" x="196.5" y="583.4805">grain orientations</text><rect fill="#F5F5DC" height="378" rx="5" ry="5" style="stroke:#1E90FF;stroke-width:1.5;" width="172" x="339.5" y="237.6641"/><path d="M384.5,237.6641 L384.5,248.2734 L374.5,258.2734 L339.5,258.2734 " fill="none" style="stroke:#1E90FF;stroke-width:1.5;"/><text fill="#1E90FF" font-family="sans-serif" font-size="14" lengthAdjust="spacing" textLength="35" x="342.5" y="253.1973">EELS</text><rect fill="#9C179E" height="65.2813" rx="12.5" ry="12.5" style="stroke:#181818;stroke-width:0.5;" width="152" x="349.5" y="275.2734"/><text fill="#FFFFFF" font-family="sans-serif" font-size="12" lengthAdjust="spacing" textLength="41" x="403.5" y="297.7305">Acquire</text><text fill="#FFFFFF" font-family="sans-serif" font-size="12" lengthAdjust="spacing" textLength="75" x="388" y="312.8242">EELS spectra</text><text fill="#FFFFFF" font-family="sans-serif" font-size="12" lengthAdjust="spacing" textLength="132" x="359.5" y="327.918">points, linescans, maps</text><rect fill="#ED7953" height="35.0938" rx="12.5" ry="12.5" style="stroke:#181818;stroke-width:0.5;" width="95" x="378" y="375.5547"/><text fill="#FFFFFF" font-family="sans-serif" font-size="12" lengthAdjust="spacing" textLength="75" x="388" y="398.0117">EELS spectra</text><rect fill="#F0F921" height="65.2813" rx="12.5" ry="12.5" style="stroke:#181818;stroke-width:0.5;" width="81" x="385" y="445.6484"/><text fill="#000000" font-family="sans-serif" font-size="12" lengthAdjust="spacing" textLength="61" x="395" y="468.1055">Multivariate</text><text fill="#000000" font-family="sans-serif" font-size="12" lengthAdjust="spacing" textLength="52" x="399.5" y="483.1992">statistical</text><text fill="#000000" font-family="sans-serif" font-size="12" lengthAdjust="spacing" textLength="46" x="402.5" y="498.293">analysis</text><rect fill="#F0F921" height="50.1875" rx="12.5" ry="12.5" style="stroke:#0000FF;stroke-width:2.0;" width="117" x="367" y="545.9297"/><text fill="#000000" font-family="sans-serif" font-size="12" lengthAdjust="spacing" textLength="97" x="377" y="568.3867">Chemical profiles</text><text fill="#000000" font-family="sans-serif" font-size="12" lengthAdjust="spacing" textLength="67" x="392" y="583.4805">at interfaces</text><rect fill="#F5F5DC" height="381.4531" rx="5" ry="5" style="stroke:#1E90FF;stroke-width:1.5;" width="225" x="533.5" y="176.4688"/><path d="M615.5,176.4688 L615.5,187.0781 L605.5,197.0781 L533.5,197.0781 " fill="none" style="stroke:#1E90FF;stroke-width:1.5;"/><text fill="#1E90FF" font-family="sans-serif" font-size="14" lengthAdjust="spacing" textLength="72" x="536.5" y="192.002">PPMS-VSM</text><rect fill="#9C179E" height="68.2813" rx="12.5" ry="12.5" style="stroke:#181818;stroke-width:0.5;" width="205" x="543.5" y="214.0781"/><text fill="#FFFFFF" font-family="sans-serif" font-size="12" lengthAdjust="spacing" textLength="48" x="620.5" y="236.5352">Measure</text><text fill="#FFFFFF" font-family="sans-serif" font-size="12" lengthAdjust="spacing" textLength="156" x="568" y="251.6289">M(H) at T = 4 K, 100 K, 300 K</text><text fill="#FFFFFF" font-family="sans-serif" font-size="12" lengthAdjust="spacing" textLength="117" x="553.5" y="266.7227">M(T) in applied field &#956;</text><text fill="#FFFFFF" font-family="sans-serif" font-size="9" lengthAdjust="spacing" textLength="5" x="670.5" y="270.3818">0</text><text fill="#FFFFFF" font-family="sans-serif" font-size="12" lengthAdjust="spacing" textLength="63" x="675.5" y="266.7227">H = 0.001 T</text><rect fill="#ED7953" height="35.0938" rx="12.5" ry="12.5" style="stroke:#181818;stroke-width:0.5;" width="124" x="584" y="317.3594"/><text fill="#FFFFFF" font-family="sans-serif" font-size="12" lengthAdjust="spacing" textLength="104" x="594" y="339.8164">M(H) and M(T) data</text><rect fill="#F0F921" height="50.1875" rx="12.5" ry="12.5" style="stroke:#181818;stroke-width:0.5;" width="194" x="549" y="387.4531"/><text fill="#000000" font-family="sans-serif" font-size="12" lengthAdjust="spacing" textLength="99" x="596.5" y="409.9102">Convert to SI units</text><text fill="#000000" font-family="sans-serif" font-size="12" lengthAdjust="spacing" textLength="174" x="559" y="425.0039">Convert to volume-specific units</text><rect fill="#F0F921" height="65.2813" rx="12.5" ry="12.5" style="stroke:#0000FF;stroke-width:2.0;" width="174" x="559" y="472.6406"/><text fill="#000000" font-family="sans-serif" font-size="12" lengthAdjust="spacing" textLength="125" x="583.5" y="495.0977">Hysteresis loops, M(H)</text><text fill="#000000" font-family="sans-serif" font-size="12" lengthAdjust="spacing" textLength="123" x="584.5" y="510.1914">and derived properties</text><text fill="#000000" font-family="sans-serif" font-size="12" lengthAdjust="spacing" textLength="154" x="569" y="525.2852">M(T) curves and Curie temp.</text><line style="stroke:#181818;stroke-width:1.0;" x1="93" x2="93" y1="333.0078" y2="368.0078"/><polygon fill="#181818" points="89,358.0078,93,368.0078,97,358.0078,93,362.0078" style="stroke:#181818;stroke-width:1.0;"/><line style="stroke:#181818;stroke-width:1.0;" x1="93" x2="93" y1="403.1016" y2="438.1016"/><polygon fill="#181818" points="89,428.1016,93,438.1016,97,428.1016,93,432.1016" style="stroke:#181818;stroke-width:1.0;"/><line style="stroke:#181818;stroke-width:1.0;" x1="93" x2="93" y1="488.2891" y2="523.2891"/><polygon fill="#181818" points="89,513.2891,93,523.2891,97,513.2891,93,517.2891" style="stroke:#181818;stroke-width:1.0;"/><line style="stroke:#181818;stroke-width:1.0;" x1="244.5" x2="244.5" y1="355.6484" y2="390.6484"/><polygon fill="#181818" points="240.5,380.6484,244.5,390.6484,248.5,380.6484,244.5,384.6484" style="stroke:#181818;stroke-width:1.0;"/><line style="stroke:#181818;stroke-width:1.0;" x1="244.5" x2="244.5" y1="425.7422" y2="460.7422"/><polygon fill="#181818" points="240.5,450.7422,244.5,460.7422,248.5,450.7422,244.5,454.7422" style="stroke:#181818;stroke-width:1.0;"/><line style="stroke:#181818;stroke-width:1.0;" x1="244.5" x2="244.5" y1="495.8359" y2="530.8359"/><polygon fill="#181818" points="240.5,520.8359,244.5,530.8359,248.5,520.8359,244.5,524.8359" style="stroke:#181818;stroke-width:1.0;"/><line style="stroke:#181818;stroke-width:1.0;" x1="425.5" x2="425.5" y1="340.5547" y2="375.5547"/><polygon fill="#181818" points="421.5,365.5547,425.5,375.5547,429.5,365.5547,425.5,369.5547" style="stroke:#181818;stroke-width:1.0;"/><line style="stroke:#181818;stroke-width:1.0;" x1="425.5" x2="425.5" y1="410.6484" y2="445.6484"/><polygon fill="#181818" points="421.5,435.6484,425.5,445.6484,429.5,435.6484,425.5,439.6484" style="stroke:#181818;stroke-width:1.0;"/><line style="stroke:#181818;stroke-width:1.0;" x1="425.5" x2="425.5" y1="510.9297" y2="545.9297"/><polygon fill="#181818" points="421.5,535.9297,425.5,545.9297,429.5,535.9297,425.5,539.9297" style="stroke:#181818;stroke-width:1.0;"/><line style="stroke:#181818;stroke-width:1.0;" x1="93" x2="93" y1="217.6641" y2="282.8203"/><polygon fill="#181818" points="89,272.8203,93,282.8203,97,272.8203,93,276.8203" style="stroke:#181818;stroke-width:1.0;"/><line style="stroke:#181818;stroke-width:1.0;" x1="244.5" x2="244.5" y1="217.6641" y2="275.2734"/><polygon fill="#181818" points="240.5,265.2734,244.5,275.2734,248.5,265.2734,244.5,269.2734" style="stroke:#181818;stroke-width:1.0;"/><line style="stroke:#181818;stroke-width:1.0;" x1="425.5" x2="425.5" y1="217.6641" y2="275.2734"/><polygon fill="#181818" points="421.5,265.2734,425.5,275.2734,429.5,265.2734,425.5,269.2734" style="stroke:#181818;stroke-width:1.0;"/><line style="stroke:#181818;stroke-width:1.0;" x1="260.5" x2="260.5" y1="166.4688" y2="216.1641"/><polygon fill="#181818" points="256.5,206.1641,260.5,216.1641,264.5,206.1641,260.5,210.1641" style="stroke:#181818;stroke-width:1.0;"/><line style="stroke:#181818;stroke-width:1.0;" x1="646" x2="646" y1="282.3594" y2="317.3594"/><polygon fill="#181818" points="642,307.3594,646,317.3594,650,307.3594,646,311.3594" style="stroke:#181818;stroke-width:1.0;"/><line style="stroke:#181818;stroke-width:1.0;" x1="646" x2="646" y1="352.4531" y2="387.4531"/><polygon fill="#181818" points="642,377.4531,646,387.4531,650,377.4531,646,381.4531" style="stroke:#181818;stroke-width:1.0;"/><line style="stroke:#181818;stroke-width:1.0;" x1="646" x2="646" y1="437.6406" y2="472.6406"/><polygon fill="#181818" points="642,462.6406,646,472.6406,650,462.6406,646,466.6406" style="stroke:#181818;stroke-width:1.0;"/><line style="stroke:#181818;stroke-width:1.0;" x1="260.5" x2="260.5" y1="82.6875" y2="101.1875"/><polygon fill="#181818" points="256.5,91.1875,260.5,101.1875,264.5,91.1875,260.5,95.1875" style="stroke:#181818;stroke-width:1.0;"/><line style="stroke:#181818;stroke-width:1.0;" x1="646" x2="646" y1="82.6875" y2="214.0781"/><polygon fill="#181818" points="642,204.0781,646,214.0781,650,204.0781,646,208.0781" style="stroke:#181818;stroke-width:1.0;"/><line style="stroke:#181818;stroke-width:1.0;" x1="382.5" x2="382.5" y1="61.1875" y2="81.1875"/><polygon fill="#181818" points="378.5,71.1875,382.5,81.1875,386.5,71.1875,382.5,75.1875" style="stroke:#181818;stroke-width:1.0;"/><!--SRC=[hPHjRzem4CVVyobkxreDQAhkLSQGAD1HRT4gmVOg4hew5x3as9dji7QVlcVpb5QqwgH5GOxnFVpzkxC_-3LL1DcFyMmq6VLgXQv2AAsfeD-_u3UkkqudpN2boKi1fLHLhbrDGbQatMSO31f7TYdGqN3OSRMIlWEGJXK9RutkUOkwTcX9-rmhh4YfROfSL-sWBoC1hAnfQbXCCrw9tqjXL0WhZOu60FjquTcQtt9GgLS75ySJHJlpyAGZyRkHba2o9RbSdrtVT672lzbeDBav3pheeIORzkVRZlijxJo3eSK_om8zjis20eBQ6a4kPCyrwW9GetfqCde5Z-NHeEtyrQBKuEHVwZ8VO-krKMRrcEjwpLYWaCvRUTy4125IAJdiImK5UHJhtPGuToJHEG83N76MPzWciYmjHhJlG4Sx4hakZdwi4RqdgmFJ-MZIXV7rTF86ptRElUkhK7L13y-ite0exAFpg81PDS8tDh1Kx2e5rmKjzo17OPMh2DjOoS8mo73_bUbq-dt-3fYvZeRXIF5POOf6Qk-weAGc9r3pPuMrUwClM-wlySiQvUK6hKHFV7p3TXtpG1MwyrsTEUQh83Y4pkRp6auEUc2fP4iKzC_ezhFz4JwkFEUvPNbtbyrxl-RPQPvfHkYQo38xcvq32rl05_W4txfmcIHXk0f3M5wSisZ0cfDGmJSFgG86FpycLzVZuS0rzyDaS1666GT8-abo2OkJwDDj9bOTOuPDdu2VZetUaFNW3SnleT7ICxZMdnkZcefwyK8j-IgC5g-N8frnQvCbhXSeOsfkZg1ZUySKh733cs8l5kjbg54K9ngx8HV5ZXjkT_1KrVsJ5JjKwrYFGvMU0000]--></g></svg>