<?xml version="1.0" encoding="us-ascii" standalone="no"?><svg xmlns="http://www.w3.org/2000/svg" xmlns:xlink="http://www.w3.org/1999/xlink" contentStyleType="text/css" height="683px" preserveAspectRatio="none" style="width:270px;height:683px;background:#FFFFFF;" version="1.1" viewBox="0 0 270 683" width="270px" zoomAndPan="magnify"><defs/><g><rect fill="#0D0887" height="35.0938" rx="12.5" ry="12.5" style="stroke:#181818;stroke-width:0.5;" width="149" x="60.5" y="11"/><text fill="#FFFFFF" font-family="sans-serif" font-size="12" lengthAdjust="spacing" textLength="129" x="70.5" y="33.457">Bulk sample or thin film</text><rect fill="#9C179E" height="65.2813" rx="12.5" ry="12.5" style="stroke:#181818;stroke-width:0.5;" width="231" x="19.5" y="66.0938"/><text fill="#FFFFFF" font-family="sans-serif" font-size="12" lengthAdjust="spacing" textLength="166" x="52" y="88.5508">Set up experimental geometry:</text><text fill="#FFFFFF" font-family="sans-serif" font-size="12" lengthAdjust="spacing" textLength="208" x="32.5" y="103.6445">sample tilt (&#176;), working distance (mm),</text><text fill="#FFFFFF" font-family="sans-serif" font-size="12" lengthAdjust="spacing" textLength="127" x="71.5" y="118.7383">detector distance (mm)</text><rect fill="#9C179E" height="35.0938" rx="12.5" ry="12.5" style="stroke:#181818;stroke-width:0.5;" width="232" x="19" y="151.375"/><text fill="#FFFFFF" font-family="sans-serif" font-size="12" lengthAdjust="spacing" textLength="212" x="29" y="173.832">Acquire electron image (SE, BSE, FSE)</text><rect fill="#ED7953" height="35.0938" rx="12.5" ry="12.5" style="stroke:#181818;stroke-width:0.5;" width="118" x="76" y="206.4688"/><text fill="#FFFFFF" font-family="sans-serif" font-size="12" lengthAdjust="spacing" textLength="98" x="86" y="228.9258">Electron image(s)</text><rect fill="#9C179E" height="50.1875" rx="12.5" ry="12.5" style="stroke:#181818;stroke-width:0.5;" width="204" x="33" y="261.5625"/><text fill="#FFFFFF" font-family="sans-serif" font-size="12" lengthAdjust="spacing" textLength="183" x="43.5" y="284.0195">Define rectangular ROI, step size,</text><text fill="#FFFFFF" font-family="sans-serif" font-size="12" lengthAdjust="spacing" textLength="184" x="43" y="299.1133">detector and indexing parameters</text><rect fill="#9C179E" height="35.0938" rx="12.5" ry="12.5" style="stroke:#181818;stroke-width:0.5;" width="248" x="11" y="331.75"/><text fill="#FFFFFF" font-family="sans-serif" font-size="12" lengthAdjust="spacing" textLength="228" x="21" y="354.207">Acquire EBSD patterns at all points in ROI</text><rect fill="#ED7953" height="35.0938" rx="12.5" ry="12.5" style="stroke:#181818;stroke-width:0.5;" width="171" x="49.5" y="386.8438"/><text fill="#FFFFFF" font-family="sans-serif" font-size="12" lengthAdjust="spacing" textLength="151" x="59.5" y="409.3008">EBSD pattern for each point</text><rect fill="#F0F921" height="35.0938" rx="12.5" ry="12.5" style="stroke:#181818;stroke-width:0.5;" width="171" x="49.5" y="441.9375"/><text fill="#000000" font-family="sans-serif" font-size="12" lengthAdjust="spacing" textLength="151" x="59.5" y="464.3945">Hough indexing (automatic)</text><rect fill="#F0F921" height="50.1875" rx="12.5" ry="12.5" style="stroke:#0000FF;stroke-width:2.0;" width="167" x="51.5" y="497.0313"/><text fill="#000000" font-family="sans-serif" font-size="12" lengthAdjust="spacing" textLength="147" x="61.5" y="519.4883">Euler angles and phase ID</text><text fill="#000000" font-family="sans-serif" font-size="12" lengthAdjust="spacing" textLength="115" x="77.5" y="534.582">for each point in map</text><rect fill="#F0F921" height="35.0938" rx="12.5" ry="12.5" style="stroke:#181818;stroke-width:0.5;" width="240" x="15" y="567.2188"/><text fill="#000000" font-family="sans-serif" font-size="12" lengthAdjust="spacing" textLength="220" x="25" y="589.6758">Analysis of orientations (user controlled)</text><rect fill="#F0F921" height="50.1875" rx="12.5" ry="12.5" style="stroke:#0000FF;stroke-width:2.0;" width="223" x="23.5" y="622.3125"/><text fill="#000000" font-family="sans-serif" font-size="12" lengthAdjust="spacing" textLength="167" x="51.5" y="644.7695">Orientation maps, Pole figures</text><text fill="#000000" font-family="sans-serif" font-size="12" lengthAdjust="spacing" textLength="124" x="33.5" y="659.8633">Quantitative measures</text><text fill="#000000" font-family="sans-serif" font-size="12" font-style="italic" lengthAdjust="spacing" textLength="20" x="160.5" y="659.8633">e.g.</text><text fill="#000000" font-family="sans-serif" font-size="12" lengthAdjust="spacing" textLength="53" x="183.5" y="659.8633">grain size</text><line style="stroke:#181818;stroke-width:1.0;" x1="135" x2="135" y1="46.0938" y2="66.0938"/><polygon fill="#181818" points="131,56.0938,135,66.0938,139,56.0938,135,60.0938" style="stroke:#181818;stroke-width:1.0;"/><line style="stroke:#181818;stroke-width:1.0;" x1="135" x2="135" y1="131.375" y2="151.375"/><polygon fill="#181818" points="131,141.375,135,151.375,139,141.375,135,145.375" style="stroke:#181818;stroke-width:1.0;"/><line style="stroke:#181818;stroke-width:1.0;" x1="135" x2="135" y1="186.4688" y2="206.4688"/><polygon fill="#181818" points="131,196.4688,135,206.4688,139,196.4688,135,200.4688" style="stroke:#181818;stroke-width:1.0;"/><line style="stroke:#181818;stroke-width:1.0;" x1="135" x2="135" y1="241.5625" y2="261.5625"/><polygon fill="#181818" points="131,251.5625,135,261.5625,139,251.5625,135,255.5625" style="stroke:#181818;stroke-width:1.0;"/><line style="stroke:#181818;stroke-width:1.0;" x1="135" x2="135" y1="311.75" y2="331.75"/><polygon fill="#181818" points="131,321.75,135,331.75,139,321.75,135,325.75" style="stroke:#181818;stroke-width:1.0;"/><line style="stroke:#181818;stroke-width:1.0;" x1="135" x2="135" y1="366.8438" y2="386.8438"/><polygon fill="#181818" points="131,376.8438,135,386.8438,139,376.8438,135,380.8438" style="stroke:#181818;stroke-width:1.0;"/><line style="stroke:#181818;stroke-width:1.0;" x1="135" x2="135" y1="421.9375" y2="441.9375"/><polygon fill="#181818" points="131,431.9375,135,441.9375,139,431.9375,135,435.9375" style="stroke:#181818;stroke-width:1.0;"/><line style="stroke:#181818;stroke-width:1.0;" x1="135" x2="135" y1="477.0313" y2="497.0313"/><polygon fill="#181818" points="131,487.0313,135,497.0313,139,487.0313,135,491.0313" style="stroke:#181818;stroke-width:1.0;"/><line style="stroke:#181818;stroke-width:1.0;" x1="135" x2="135" y1="547.2188" y2="567.2188"/><polygon fill="#181818" points="131,557.2188,135,567.2188,139,557.2188,135,561.2188" style="stroke:#181818;stroke-width:1.0;"/><line style="stroke:#181818;stroke-width:1.0;" x1="135" x2="135" y1="602.3125" y2="622.3125"/><polygon fill="#181818" points="131,612.3125,135,622.3125,139,612.3125,135,616.3125" style="stroke:#181818;stroke-width:1.0;"/><!--SRC=[TL9DRzim3BttLt0t5_FYdBCWGBAaQ0z3jWMx1GW8cxQ5wgiYjRRxzQCyR6cs5X04I7paUu_aEnd94NpUVxfTRzSVeaLs27qA3cQpHiyKvwl59jjxO7JH4eG4CXeFlR7k8ooNcIcTMcHQhQuM1nB84UWfKZAElA25WO8ZIS-Be_zJGumLg9RVty_dc_dgkeR7aEwD7w0pBEXRWigvw_heEn9gHIal0eNsJ55ur-r3Dec0hC9Jy60S3We-x6hObElci7ibRNS1htY297myTIXO05lgZIT82aC_P8i9lktlQc2X26n-qakDw3im-dmgJY8cLDkK-6srkyrXgq1Hb6T00RGMOZ1UM0iLfbSalyY1Nba9s_5tqh_YRqCUnhEY2hC4XsBQoMP1dM8ABJ5hUAgTBHKRWoMUtCHHvmftswE_P2hg7CPIHlk3zY_bMX_FR1X2hujYoWA82MgkAci2RV3QRckfUql2_fnK6BY6Bq4NfZT3JiH7_pMZ5rC0FmWS8PTlQ1gQ3REcWI6XIYk3-K-RZadr_m80]--></g></svg>