<svg xmlns="http://www.w3.org/2000/svg" xmlns:xlink="http://www.w3.org/1999/xlink" contentStyleType="text/css" height="723px" preserveAspectRatio="none" style="width:290px;height:723px;background:#FFFFFF;" version="1.1" viewBox="0 0 290 723" width="290px" zoomAndPan="magnify"><defs/><g><rect fill="#0D0887" height="35.0938" rx="12.5" ry="12.5" style="stroke:#181818;stroke-width:0.5;" width="149" x="70.5" y="11"/><text fill="#FFFFFF" font-family="sans-serif" font-size="12" lengthAdjust="spacing" textLength="129" x="80.5" y="33.457">Bulk sample or thin film</text><rect fill="#F5F5DC" height="656.0156" rx="5" ry="5" style="stroke:#1E90FF;stroke-width:1.5;" width="268" x="11" y="56.0938"/><path d="M92,56.0938 L92,66.7031 L82,76.7031 L11,76.7031 " fill="none" style="stroke:#1E90FF;stroke-width:1.5;"/><text fill="#1E90FF" font-family="sans-serif" font-size="14" lengthAdjust="spacing" textLength="71" x="14" y="71.627">SEM-EBSD</text><rect fill="#9C179E" height="65.2813" rx="12.5" ry="12.5" style="stroke:#181818;stroke-width:0.5;" width="231" x="29.5" y="93.7031"/><text fill="#FFFFFF" font-family="sans-serif" font-size="12" lengthAdjust="spacing" textLength="166" x="62" y="116.1602">Set up experimental geometry:</text><text fill="#FFFFFF" font-family="sans-serif" font-size="12" lengthAdjust="spacing" textLength="208" x="42.5" y="131.2539">sample tilt (&#176;), working distance (mm),</text><text fill="#FFFFFF" font-family="sans-serif" font-size="12" lengthAdjust="spacing" textLength="127" x="81.5" y="146.3477">detector distance (mm)</text><rect fill="#9C179E" height="35.0938" rx="12.5" ry="12.5" style="stroke:#181818;stroke-width:0.5;" width="232" x="29" y="178.9844"/><text fill="#FFFFFF" font-family="sans-serif" font-size="12" lengthAdjust="spacing" textLength="212" x="39" y="201.4414">Acquire electron image (SE, BSE, FSE)</text><rect fill="#ED7953" height="35.0938" rx="12.5" ry="12.5" style="stroke:#181818;stroke-width:0.5;" width="118" x="86" y="234.0781"/><text fill="#FFFFFF" font-family="sans-serif" font-size="12" lengthAdjust="spacing" textLength="98" x="96" y="256.5352">Electron image(s)</text><rect fill="#9C179E" height="50.1875" rx="12.5" ry="12.5" style="stroke:#181818;stroke-width:0.5;" width="204" x="43" y="289.1719"/><text fill="#FFFFFF" font-family="sans-serif" font-size="12" lengthAdjust="spacing" textLength="183" x="53.5" y="311.6289">Define rectangular ROI, step size,</text><text fill="#FFFFFF" font-family="sans-serif" font-size="12" lengthAdjust="spacing" textLength="184" x="53" y="326.7227">detector and indexing parameters</text><rect fill="#9C179E" height="35.0938" rx="12.5" ry="12.5" style="stroke:#181818;stroke-width:0.5;" width="248" x="21" y="359.3594"/><text fill="#FFFFFF" font-family="sans-serif" font-size="12" lengthAdjust="spacing" textLength="228" x="31" y="381.8164">Acquire EBSD patterns at all points in ROI</text><rect fill="#ED7953" height="35.0938" rx="12.5" ry="12.5" style="stroke:#181818;stroke-width:0.5;" width="171" x="59.5" y="414.4531"/><text fill="#FFFFFF" font-family="sans-serif" font-size="12" lengthAdjust="spacing" textLength="151" x="69.5" y="436.9102">EBSD pattern for each point</text><rect fill="#F0F921" height="35.0938" rx="12.5" ry="12.5" style="stroke:#181818;stroke-width:0.5;" width="171" x="59.5" y="469.5469"/><text fill="#000000" font-family="sans-serif" font-size="12" lengthAdjust="spacing" textLength="151" x="69.5" y="492.0039">Hough indexing (automatic)</text><rect fill="#F0F921" height="50.1875" rx="12.5" ry="12.5" style="stroke:#0000FF;stroke-width:2.0;" width="167" x="61.5" y="524.6406"/><text fill="#000000" font-family="sans-serif" font-size="12" lengthAdjust="spacing" textLength="147" x="71.5" y="547.0977">Euler angles and phase ID</text><text fill="#000000" font-family="sans-serif" font-size="12" lengthAdjust="spacing" textLength="115" x="87.5" y="562.1914">for each point in map</text><rect fill="#F0F921" height="35.0938" rx="12.5" ry="12.5" style="stroke:#181818;stroke-width:0.5;" width="240" x="25" y="594.8281"/><text fill="#000000" font-family="sans-serif" font-size="12" lengthAdjust="spacing" textLength="220" x="35" y="617.2852">Analysis of orientations (user controlled)</text><rect fill="#F0F921" height="50.1875" rx="12.5" ry="12.5" style="stroke:#0000FF;stroke-width:2.0;" width="223" x="33.5" y="649.9219"/><text fill="#000000" font-family="sans-serif" font-size="12" lengthAdjust="spacing" textLength="167" x="61.5" y="672.3789">Orientation maps, Pole figures</text><text fill="#000000" font-family="sans-serif" font-size="12" lengthAdjust="spacing" textLength="124" x="43.5" y="687.4727">Quantitative measures</text><text fill="#000000" font-family="sans-serif" font-size="12" font-style="italic" lengthAdjust="spacing" textLength="20" x="170.5" y="687.4727">e.g.</text><text fill="#000000" font-family="sans-serif" font-size="12" lengthAdjust="spacing" textLength="53" x="193.5" y="687.4727">grain size</text><line style="stroke:#181818;stroke-width:1.0;" x1="145" x2="145" y1="158.9844" y2="178.9844"/><polygon fill="#181818" points="141,168.9844,145,178.9844,149,168.9844,145,172.9844" style="stroke:#181818;stroke-width:1.0;"/><line style="stroke:#181818;stroke-width:1.0;" x1="145" x2="145" y1="214.0781" y2="234.0781"/><polygon fill="#181818" points="141,224.0781,145,234.0781,149,224.0781,145,228.0781" style="stroke:#181818;stroke-width:1.0;"/><line style="stroke:#181818;stroke-width:1.0;" x1="145" x2="145" y1="269.1719" y2="289.1719"/><polygon fill="#181818" points="141,279.1719,145,289.1719,149,279.1719,145,283.1719" style="stroke:#181818;stroke-width:1.0;"/><line style="stroke:#181818;stroke-width:1.0;" x1="145" x2="145" y1="339.3594" y2="359.3594"/><polygon fill="#181818" points="141,349.3594,145,359.3594,149,349.3594,145,353.3594" style="stroke:#181818;stroke-width:1.0;"/><line style="stroke:#181818;stroke-width:1.0;" x1="145" x2="145" y1="394.4531" y2="414.4531"/><polygon fill="#181818" points="141,404.4531,145,414.4531,149,404.4531,145,408.4531" style="stroke:#181818;stroke-width:1.0;"/><line style="stroke:#181818;stroke-width:1.0;" x1="145" x2="145" y1="449.5469" y2="469.5469"/><polygon fill="#181818" points="141,459.5469,145,469.5469,149,459.5469,145,463.5469" style="stroke:#181818;stroke-width:1.0;"/><line style="stroke:#181818;stroke-width:1.0;" x1="145" x2="145" y1="504.6406" y2="524.6406"/><polygon fill="#181818" points="141,514.6406,145,524.6406,149,514.6406,145,518.6406" style="stroke:#181818;stroke-width:1.0;"/><line style="stroke:#181818;stroke-width:1.0;" x1="145" x2="145" y1="574.8281" y2="594.8281"/><polygon fill="#181818" points="141,584.8281,145,594.8281,149,584.8281,145,588.8281" style="stroke:#181818;stroke-width:1.0;"/><line style="stroke:#181818;stroke-width:1.0;" x1="145" x2="145" y1="629.9219" y2="649.9219"/><polygon fill="#181818" points="141,639.9219,145,649.9219,149,639.9219,145,643.9219" style="stroke:#181818;stroke-width:1.0;"/><line style="stroke:#181818;stroke-width:1.0;" x1="145" x2="145" y1="46.0938" y2="93.7031"/><polygon fill="#181818" points="141,83.7031,145,93.7031,149,83.7031,145,87.7031" style="stroke:#181818;stroke-width:1.0;"/><!--SRC=[VL9TYzim47pFhzY- -QWlpdCQ0adZSlTmfAtfMo0izjeMfwzgfTvTVtrNJaiIcXQCGThPdHdjl8iZ6OAd_SU7pMvpxpMoGUY3Cp2VL_9DTPujjqa_0wFnci05YAEoq2jjFi1gbPZ2iKMczNes19SyDFNJVRrjTbASBewixA1p7M3PK0J1qAkde0pPY1e6SePYU5iUx1-Mg7I4OlNj_MAnNQplIdXnuLd6GASuecq92cFkoeFjA58RHTHL8GixKvoOD-ttf081QMa8pe8oE0YygKlOvj-dfhxPM5yr53o10huSEunuWkoeLvOW213ja3G6-Bf_B84ZUM3raowLekr0oV4r-_4OKCnJuFzfdfxJOnISPS08g3Lufsna6PMvRWg_w89Uc0dRyTJsjuK7buRnhAl059t1gDh9RiOTVN0jSTxcx_b9KxOZo-N9bHyb1_2uEzXhjgpHeC-3v9rGNz1kvFZ6Yi7r4YsL0n6L4vD53XQqpihJQqtTlsNipssPXKlux2H2lHfI83xOBmbjL1dmWy0GShw6ggBvCAyg60AAlBoa6_faQU9YHc9kol8l]--></g></svg>