<svg xmlns="http://www.w3.org/2000/svg" xmlns:xlink="http://www.w3.org/1999/xlink" contentStyleType="text/css" height="1518px" preserveAspectRatio="none" style="width:617px;height:1518px;background:#FFFFFF;" version="1.1" viewBox="0 0 617 1518" width="617px" zoomAndPan="magnify"><defs><linearGradient id="gl9bxb0hkeeik0" x1="50%" x2="50%" y1="0%" y2="100%"><stop offset="0%" stop-color="#F0F921"/><stop offset="100%" stop-color="#9C179E"/></linearGradient></defs><g><rect fill="#FFFFFF" height="931.25" rx="5" ry="5" style="stroke:#800080;stroke-width:2.0;stroke-dasharray:3.0,3.0;" width="595" x="11" y="11"/><path d="M68,11 L68,21.6094 L58,31.6094 L11,31.6094 " fill="none" style="stroke:#800080;stroke-width:2.0;stroke-dasharray:3.0,3.0;"/><text fill="#800080" font-family="sans-serif" font-size="14" lengthAdjust="spacing" textLength="47" x="14" y="26.5332">CHADA</text><rect fill="#0D0887" height="35.0938" rx="12.5" ry="12.5" style="stroke:#181818;stroke-width:0.5;" width="149" x="234" y="41.6094"/><text fill="#FFFFFF" font-family="sans-serif" font-size="12" lengthAdjust="spacing" textLength="129" x="244" y="64.0664">Bulk sample or thin film</text><rect fill="#C0C0C0" height="843.5469" rx="5" ry="5" style="stroke:#0000CD;stroke-width:1.5;" width="575" x="21" y="86.7031"/><path d="M134,86.7031 L134,97.3125 L124,107.3125 L21,107.3125 " fill="none" style="stroke:#0000CD;stroke-width:1.5;"/><text fill="#0000CD" font-family="sans-serif" font-size="14" lengthAdjust="spacing" textLength="103" x="24" y="102.2363">SEM-EBSD-EDX</text><rect fill="#9C179E" height="65.2813" rx="12.5" ry="12.5" style="stroke:#181818;stroke-width:0.5;" width="231" x="193" y="124.3125"/><text fill="#FFFFFF" font-family="sans-serif" font-size="12" lengthAdjust="spacing" textLength="166" x="225.5" y="146.7695">Set up experimental geometry:</text><text fill="#FFFFFF" font-family="sans-serif" font-size="12" lengthAdjust="spacing" textLength="208" x="206" y="161.8633">sample tilt (&#176;), working distance (mm),</text><text fill="#FFFFFF" font-family="sans-serif" font-size="12" lengthAdjust="spacing" textLength="127" x="245" y="176.957">detector distance (mm)</text><rect fill="#9C179E" height="35.0938" rx="12.5" ry="12.5" style="stroke:#181818;stroke-width:0.5;" width="232" x="192.5" y="209.5938"/><text fill="#FFFFFF" font-family="sans-serif" font-size="12" lengthAdjust="spacing" textLength="212" x="202.5" y="232.0508">Acquire electron image (SE, BSE, FSE)</text><rect fill="#ED7953" height="35.0938" rx="12.5" ry="12.5" style="stroke:#181818;stroke-width:0.5;" width="118" x="249.5" y="264.6875"/><text fill="#FFFFFF" font-family="sans-serif" font-size="12" lengthAdjust="spacing" textLength="98" x="259.5" y="287.1445">Electron image(s)</text><rect fill="#9C179E" height="50.1875" rx="12.5" ry="12.5" style="stroke:#181818;stroke-width:0.5;" width="204" x="206.5" y="319.7813"/><text fill="#FFFFFF" font-family="sans-serif" font-size="12" lengthAdjust="spacing" textLength="183" x="217" y="342.2383">Define rectangular ROI, step size,</text><text fill="#FFFFFF" font-family="sans-serif" font-size="12" lengthAdjust="spacing" textLength="184" x="216.5" y="357.332">detector and indexing parameters</text><line style="stroke:#181818;stroke-width:1.5;" x1="167" x2="456.5" y1="389.9688" y2="389.9688"/><rect fill="#F5F5DC" height="217.5313" rx="5" ry="5" style="stroke:#1E90FF;stroke-width:1.5;" width="268" x="33" y="407.5156"/><path d="M80,407.5156 L80,418.125 L70,428.125 L33,428.125 " fill="none" style="stroke:#1E90FF;stroke-width:1.5;"/><text fill="#1E90FF" font-family="sans-serif" font-size="14" lengthAdjust="spacing" textLength="37" x="36" y="423.0488">EBSD</text><rect fill="#9C179E" height="35.0938" rx="12.5" ry="12.5" style="stroke:#181818;stroke-width:0.5;" width="248" x="43" y="445.125"/><text fill="#FFFFFF" font-family="sans-serif" font-size="12" lengthAdjust="spacing" textLength="228" x="53" y="467.582">Acquire EBSD patterns at all points in ROI</text><rect fill="#ED7953" height="35.0938" rx="12.5" ry="12.5" style="stroke:#181818;stroke-width:0.5;" width="171" x="81.5" y="507.7656"/><text fill="#FFFFFF" font-family="sans-serif" font-size="12" lengthAdjust="spacing" textLength="151" x="91.5" y="530.2227">EBSD pattern for each point</text><rect fill="#F0F921" height="35.0938" rx="12.5" ry="12.5" style="stroke:#181818;stroke-width:0.5;" width="171" x="81.5" y="570.4063"/><text fill="#000000" font-family="sans-serif" font-size="12" lengthAdjust="spacing" textLength="151" x="91.5" y="592.8633">Hough indexing (automatic)</text><rect fill="#F5F5DC" height="232.625" rx="5" ry="5" style="stroke:#1E90FF;stroke-width:1.5;" width="255" x="329" y="399.9688"/><path d="M366,399.9688 L366,410.5781 L356,420.5781 L329,420.5781 " fill="none" style="stroke:#1E90FF;stroke-width:1.5;"/><text fill="#1E90FF" font-family="sans-serif" font-size="14" lengthAdjust="spacing" textLength="27" x="332" y="415.502">EDX</text><rect fill="#9C179E" height="35.0938" rx="12.5" ry="12.5" style="stroke:#181818;stroke-width:0.5;" width="235" x="339" y="437.5781"/><text fill="#FFFFFF" font-family="sans-serif" font-size="12" lengthAdjust="spacing" textLength="215" x="349" y="460.0352">Acquire EDX spectra at all points in ROI</text><rect fill="#ED7953" height="35.0938" rx="12.5" ry="12.5" style="stroke:#181818;stroke-width:0.5;" width="176" x="368.5" y="500.2188"/><text fill="#FFFFFF" font-family="sans-serif" font-size="12" lengthAdjust="spacing" textLength="156" x="378.5" y="522.6758">EDX spectrum for each point</text><rect fill="#F0F921" height="50.1875" rx="12.5" ry="12.5" style="stroke:#181818;stroke-width:0.5;" width="225" x="344" y="562.8594"/><text fill="#000000" font-family="sans-serif" font-size="12" lengthAdjust="spacing" textLength="179" x="354" y="585.3164">Analyse composition (automatic)</text><text fill="#000000" font-family="sans-serif" font-size="12" font-style="italic" lengthAdjust="spacing" textLength="20" x="536" y="585.3164">e.g.</text><text fill="#000000" font-family="sans-serif" font-size="12" lengthAdjust="spacing" textLength="3" x="556" y="585.3164">:</text><text fill="#000000" font-family="sans-serif" font-size="12" lengthAdjust="spacing" textLength="150" x="381.5" y="600.4102">no. counts for element 1 &gt; x</text><line style="stroke:#181818;stroke-width:1.5;" x1="167" x2="456.5" y1="652.5938" y2="652.5938"/><rect fill="#F0F921" height="50.1875" rx="12.5" ry="12.5" style="stroke:#181818;stroke-width:0.5;" width="254" x="181.5" y="672.5938"/><text fill="#000000" font-family="sans-serif" font-size="12" lengthAdjust="spacing" textLength="234" x="191.5" y="695.0508">Assign phase and orientation to each point</text><text fill="#000000" font-family="sans-serif" font-size="12" lengthAdjust="spacing" textLength="62" x="277.5" y="710.1445">(automatic)</text><rect fill="#F0F921" height="50.1875" rx="12.5" ry="12.5" style="stroke:#0000FF;stroke-width:2.0;" width="167" x="225" y="742.7813"/><text fill="#000000" font-family="sans-serif" font-size="12" lengthAdjust="spacing" textLength="147" x="235" y="765.2383">Euler angles and phase ID</text><text fill="#000000" font-family="sans-serif" font-size="12" lengthAdjust="spacing" textLength="115" x="251" y="780.332">for each point in map</text><rect fill="#F0F921" height="35.0938" rx="12.5" ry="12.5" style="stroke:#181818;stroke-width:0.5;" width="240" x="188.5" y="812.9688"/><text fill="#000000" font-family="sans-serif" font-size="12" lengthAdjust="spacing" textLength="220" x="198.5" y="835.4258">Analysis of orientations (user controlled)</text><rect fill="#F0F921" height="50.1875" rx="12.5" ry="12.5" style="stroke:#0000FF;stroke-width:2.0;" width="223" x="197" y="868.0625"/><text fill="#000000" font-family="sans-serif" font-size="12" lengthAdjust="spacing" textLength="167" x="225" y="890.5195">Orientation maps, Pole figures</text><text fill="#000000" font-family="sans-serif" font-size="12" lengthAdjust="spacing" textLength="124" x="207" y="905.6133">Quantitative measures</text><text fill="#000000" font-family="sans-serif" font-size="12" font-style="italic" lengthAdjust="spacing" textLength="20" x="334" y="905.6133">e.g.</text><text fill="#000000" font-family="sans-serif" font-size="12" lengthAdjust="spacing" textLength="53" x="357" y="905.6133">grain size</text><rect fill="#FFFFFF" height="555.4512" rx="5" ry="5" style="stroke:#0000FF;stroke-width:2.0;stroke-dasharray:3.0,3.0;" width="521" x="48" y="952.25"/><path d="M99,952.25 L99,962.8594 L89,972.8594 L48,972.8594 " fill="none" style="stroke:#0000FF;stroke-width:2.0;stroke-dasharray:3.0,3.0;"/><text fill="#0000FF" font-family="sans-serif" font-size="14" lengthAdjust="spacing" textLength="41" x="51" y="967.7832">MODA</text><rect fill="#0D0887" height="35.0938" rx="12.5" ry="12.5" style="stroke:#181818;stroke-width:0.5;" width="142" x="237.5" y="989.8594"/><text fill="#FFFFFF" font-family="sans-serif" font-size="12" lengthAdjust="spacing" textLength="122" x="247.5" y="1012.3164">EBSD orientation map</text><line style="stroke:#181818;stroke-width:1.5;" x1="178" x2="428.5" y1="1044.9531" y2="1044.9531"/><rect fill="#F5F5DC" height="365.0781" rx="5" ry="5" style="stroke:#1E90FF;stroke-width:1.5;" width="212" x="72" y="1055.5293"/><path d="M274,1055.5293 L274,1066.1387 L264,1076.1387 L72,1076.1387 " fill="none" style="stroke:#1E90FF;stroke-width:1.5;"/><text fill="#1E90FF" font-family="sans-serif" font-size="14" lengthAdjust="spacing" textLength="192" x="75" y="1071.0625">Finite Element Micromagnetics</text><rect fill="#9C179E" height="35.0938" rx="12.5" ry="12.5" style="stroke:#181818;stroke-width:0.5;" width="183" x="86.5" y="1093.1387"/><text fill="#FFFFFF" font-family="sans-serif" font-size="12" lengthAdjust="spacing" textLength="163" x="96.5" y="1115.5957">Generate finite element mesh</text><rect fill="#ED7953" height="35.0938" rx="12.5" ry="12.5" style="stroke:#181818;stroke-width:0.5;" width="101" x="127.5" y="1163.2324"/><text fill="#FFFFFF" font-family="sans-serif" font-size="12" lengthAdjust="spacing" textLength="81" x="137.5" y="1185.6895">Adaptive mesh</text><rect fill="#9C179E" height="35.0938" rx="12.5" ry="12.5" style="stroke:#181818;stroke-width:0.5;" width="161" x="97.5" y="1233.3262"/><text fill="#FFFFFF" font-family="sans-serif" font-size="12" lengthAdjust="spacing" textLength="141" x="107.5" y="1255.7832">Micromagnetic simulation</text><rect fill="#ED7953" height="35.0938" rx="12.5" ry="12.5" style="stroke:#181818;stroke-width:0.5;" width="168" x="94" y="1303.4199"/><text fill="#FFFFFF" font-family="sans-serif" font-size="12" lengthAdjust="spacing" textLength="148" x="104" y="1325.877">Magnetisation vectors (t, H)</text><rect fill="#F0F921" height="35.0938" rx="12.5" ry="12.5" style="stroke:#181818;stroke-width:0.5;" width="113" x="121.5" y="1373.5137"/><text fill="#000000" font-family="sans-serif" font-size="12" lengthAdjust="spacing" textLength="93" x="131.5" y="1395.9707">Hysteresis loops</text><rect fill="#F5F5DC" height="302.9844" rx="5" ry="5" style="stroke:#1E90FF;stroke-width:1.5;" width="233" x="312" y="1090.5762"/><path d="M477,1090.5762 L477,1101.1855 L467,1111.1855 L312,1111.1855 " fill="none" style="stroke:#1E90FF;stroke-width:1.5;"/><text fill="#1E90FF" font-family="sans-serif" font-size="14" lengthAdjust="spacing" textLength="155" x="315" y="1106.1094">Machine Learning Model</text><rect fill="url(#gl9bxb0hkeeik0)" height="35.0938" rx="12.5" ry="12.5" style="stroke:#181818;stroke-width:0.5;" width="213" x="322" y="1128.1855"/><text fill="#FFFFFF" font-family="sans-serif" font-size="12" lengthAdjust="spacing" textLength="193" x="332" y="1150.6426">Grain size predictor - random forest</text><rect fill="#ED7953" height="35.0938" rx="12.5" ry="12.5" style="stroke:#181818;stroke-width:0.5;" width="128" x="364.5" y="1198.2793"/><text fill="#FFFFFF" font-family="sans-serif" font-size="12" lengthAdjust="spacing" textLength="108" x="374.5" y="1220.7363">Predicted grain size</text><rect fill="url(#gl9bxb0hkeeik0)" height="35.0938" rx="12.5" ry="12.5" style="stroke:#181818;stroke-width:0.5;" width="83" x="387" y="1268.373"/><text fill="#FFFFFF" font-family="sans-serif" font-size="12" lengthAdjust="spacing" textLength="63" x="397" y="1290.8301">Data fusion</text><rect fill="#F0F921" height="35.0938" rx="12.5" ry="12.5" style="stroke:#181818;stroke-width:0.5;" width="187" x="335" y="1338.4668"/><text fill="#000000" font-family="sans-serif" font-size="12" lengthAdjust="spacing" textLength="167" x="345" y="1360.9238">Corrected grain size prediction</text><line style="stroke:#181818;stroke-width:1.5;" x1="178" x2="428.5" y1="1440.6074" y2="1440.6074"/><rect fill="#F0F921" height="35.0938" rx="12.5" ry="12.5" style="stroke:#181818;stroke-width:0.5;" width="242" x="187.5" y="1460.6074"/><text fill="#000000" font-family="sans-serif" font-size="12" lengthAdjust="spacing" textLength="222" x="197.5" y="1483.0645">Grain size corrected magnetic properties</text><line style="stroke:#181818;stroke-width:1.0;" x1="308.5" x2="308.5" y1="189.5938" y2="209.5938"/><polygon fill="#181818" points="304.5,199.5938,308.5,209.5938,312.5,199.5938,308.5,203.5938" style="stroke:#181818;stroke-width:1.0;"/><line style="stroke:#181818;stroke-width:1.0;" x1="308.5" x2="308.5" y1="244.6875" y2="264.6875"/><polygon fill="#181818" points="304.5,254.6875,308.5,264.6875,312.5,254.6875,308.5,258.6875" style="stroke:#181818;stroke-width:1.0;"/><line style="stroke:#181818;stroke-width:1.0;" x1="308.5" x2="308.5" y1="299.7813" y2="319.7813"/><polygon fill="#181818" points="304.5,309.7813,308.5,319.7813,312.5,309.7813,308.5,313.7813" style="stroke:#181818;stroke-width:1.0;"/><line style="stroke:#181818;stroke-width:1.0;" x1="167" x2="167" y1="480.2188" y2="507.7656"/><polygon fill="#181818" points="163,497.7656,167,507.7656,171,497.7656,167,501.7656" style="stroke:#181818;stroke-width:1.0;"/><line style="stroke:#181818;stroke-width:1.0;" x1="167" x2="167" y1="542.8594" y2="570.4063"/><polygon fill="#181818" points="163,560.4063,167,570.4063,171,560.4063,167,564.4063" style="stroke:#181818;stroke-width:1.0;"/><line style="stroke:#181818;stroke-width:1.0;" x1="456.5" x2="456.5" y1="472.6719" y2="500.2188"/><polygon fill="#181818" points="452.5,490.2188,456.5,500.2188,460.5,490.2188,456.5,494.2188" style="stroke:#181818;stroke-width:1.0;"/><line style="stroke:#181818;stroke-width:1.0;" x1="456.5" x2="456.5" y1="535.3125" y2="562.8594"/><polygon fill="#181818" points="452.5,552.8594,456.5,562.8594,460.5,552.8594,456.5,556.8594" style="stroke:#181818;stroke-width:1.0;"/><line style="stroke:#181818;stroke-width:1.0;" x1="167" x2="167" y1="391.4688" y2="445.125"/><polygon fill="#181818" points="163,435.125,167,445.125,171,435.125,167,439.125" style="stroke:#181818;stroke-width:1.0;"/><line style="stroke:#181818;stroke-width:1.0;" x1="456.5" x2="456.5" y1="391.4688" y2="437.5781"/><polygon fill="#181818" points="452.5,427.5781,456.5,437.5781,460.5,427.5781,456.5,431.5781" style="stroke:#181818;stroke-width:1.0;"/><line style="stroke:#181818;stroke-width:1.0;" x1="167" x2="167" y1="605.5" y2="652.5938"/><polygon fill="#181818" points="163,642.5938,167,652.5938,171,642.5938,167,646.5938" style="stroke:#181818;stroke-width:1.0;"/><line style="stroke:#181818;stroke-width:1.0;" x1="456.5" x2="456.5" y1="613.0469" y2="652.5938"/><polygon fill="#181818" points="452.5,642.5938,456.5,652.5938,460.5,642.5938,456.5,646.5938" style="stroke:#181818;stroke-width:1.0;"/><line style="stroke:#181818;stroke-width:1.0;" x1="308.5" x2="308.5" y1="369.9688" y2="389.9688"/><polygon fill="#181818" points="304.5,379.9688,308.5,389.9688,312.5,379.9688,308.5,383.9688" style="stroke:#181818;stroke-width:1.0;"/><line style="stroke:#181818;stroke-width:1.0;" x1="308.5" x2="308.5" y1="654.0938" y2="672.5938"/><polygon fill="#181818" points="304.5,662.5938,308.5,672.5938,312.5,662.5938,308.5,666.5938" style="stroke:#181818;stroke-width:1.0;"/><line style="stroke:#181818;stroke-width:1.0;" x1="308.5" x2="308.5" y1="722.7813" y2="742.7813"/><polygon fill="#181818" points="304.5,732.7813,308.5,742.7813,312.5,732.7813,308.5,736.7813" style="stroke:#181818;stroke-width:1.0;"/><line style="stroke:#181818;stroke-width:1.0;" x1="308.5" x2="308.5" y1="792.9688" y2="812.9688"/><polygon fill="#181818" points="304.5,802.9688,308.5,812.9688,312.5,802.9688,308.5,806.9688" style="stroke:#181818;stroke-width:1.0;"/><line style="stroke:#181818;stroke-width:1.0;" x1="308.5" x2="308.5" y1="848.0625" y2="868.0625"/><polygon fill="#181818" points="304.5,858.0625,308.5,868.0625,312.5,858.0625,308.5,862.0625" style="stroke:#181818;stroke-width:1.0;"/><line style="stroke:#181818;stroke-width:1.0;" x1="308.5" x2="308.5" y1="76.7031" y2="124.3125"/><polygon fill="#181818" points="304.5,114.3125,308.5,124.3125,312.5,114.3125,308.5,118.3125" style="stroke:#181818;stroke-width:1.0;"/><line style="stroke:#181818;stroke-width:1.0;" x1="178" x2="178" y1="1128.2324" y2="1163.2324"/><polygon fill="#181818" points="174,1153.2324,178,1163.2324,182,1153.2324,178,1157.2324" style="stroke:#181818;stroke-width:1.0;"/><line style="stroke:#181818;stroke-width:1.0;" x1="178" x2="178" y1="1198.3262" y2="1233.3262"/><polygon fill="#181818" points="174,1223.3262,178,1233.3262,182,1223.3262,178,1227.3262" style="stroke:#181818;stroke-width:1.0;"/><line style="stroke:#181818;stroke-width:1.0;" x1="178" x2="178" y1="1268.4199" y2="1303.4199"/><polygon fill="#181818" points="174,1293.4199,178,1303.4199,182,1293.4199,178,1297.4199" style="stroke:#181818;stroke-width:1.0;"/><line style="stroke:#181818;stroke-width:1.0;" x1="178" x2="178" y1="1338.5137" y2="1373.5137"/><polygon fill="#181818" points="174,1363.5137,178,1373.5137,182,1363.5137,178,1367.5137" style="stroke:#181818;stroke-width:1.0;"/><line style="stroke:#181818;stroke-width:1.0;" x1="428.5" x2="428.5" y1="1163.2793" y2="1198.2793"/><polygon fill="#181818" points="424.5,1188.2793,428.5,1198.2793,432.5,1188.2793,428.5,1192.2793" style="stroke:#181818;stroke-width:1.0;"/><line style="stroke:#181818;stroke-width:1.0;" x1="428.5" x2="428.5" y1="1233.373" y2="1268.373"/><polygon fill="#181818" points="424.5,1258.373,428.5,1268.373,432.5,1258.373,428.5,1262.373" style="stroke:#181818;stroke-width:1.0;"/><line style="stroke:#181818;stroke-width:1.0;" x1="428.5" x2="428.5" y1="1303.4668" y2="1338.4668"/><polygon fill="#181818" points="424.5,1328.4668,428.5,1338.4668,432.5,1328.4668,428.5,1332.4668" style="stroke:#181818;stroke-width:1.0;"/><line style="stroke:#181818;stroke-width:1.0;" x1="178" x2="178" y1="1046.4531" y2="1093.1387"/><polygon fill="#181818" points="174,1083.1387,178,1093.1387,182,1083.1387,178,1087.1387" style="stroke:#181818;stroke-width:1.0;"/><line style="stroke:#181818;stroke-width:1.0;" x1="428.5" x2="428.5" y1="1046.4531" y2="1128.1855"/><polygon fill="#181818" points="424.5,1118.1855,428.5,1128.1855,432.5,1118.1855,428.5,1122.1855" style="stroke:#181818;stroke-width:1.0;"/><line style="stroke:#181818;stroke-width:1.0;" x1="178" x2="178" y1="1408.6074" y2="1440.6074"/><polygon fill="#181818" points="174,1430.6074,178,1440.6074,182,1430.6074,178,1434.6074" style="stroke:#181818;stroke-width:1.0;"/><line style="stroke:#181818;stroke-width:1.0;" x1="428.5" x2="428.5" y1="1373.5605" y2="1440.6074"/><polygon fill="#181818" points="424.5,1430.6074,428.5,1440.6074,432.5,1430.6074,428.5,1434.6074" style="stroke:#181818;stroke-width:1.0;"/><line style="stroke:#181818;stroke-width:1.0;" x1="308.5" x2="308.5" y1="1024.9531" y2="1044.9531"/><polygon fill="#181818" points="304.5,1034.9531,308.5,1044.9531,312.5,1034.9531,308.5,1038.9531" style="stroke:#181818;stroke-width:1.0;"/><line style="stroke:#181818;stroke-width:1.0;" x1="308.5" x2="308.5" y1="1442.1074" y2="1460.6074"/><polygon fill="#181818" points="304.5,1450.6074,308.5,1460.6074,312.5,1450.6074,308.5,1454.6074" style="stroke:#181818;stroke-width:1.0;"/><line style="stroke:#181818;stroke-width:1.0;" x1="308.5" x2="308.5" y1="918.25" y2="989.8594"/><polygon fill="#181818" points="304.5,979.8594,308.5,989.8594,312.5,979.8594,308.5,983.8594" style="stroke:#181818;stroke-width:1.0;"/><!--SRC=[bLN9RXf14BtdAoeth61mhiIoX0sEBGNX14NA0GbLPegXvTxItUCbNv_g7cQpm28IGepdrV9UlIf_33jI18lbpTrqDZst4hr2s3gZO3GQyoUzznyAPqeB2GINb-bfa-qmnwkh3m2Jwr8-WaTb9O5n47P2mrP8zON1fIUtoT1JWbQ9LlF5-VnwDJkVptwr-OoKb0LXT49osXK5O3IzM792aGueeI2ZABZNoLhN5OEG0GQNFpzTN5nVN9qDuTcuHw4Bo8KFg3E2WL9dmxNEAN01Rh3t8ZRPbgXhJxC_fN0457joHeDGM730QZw4w_XrkveV2PttGWO-mHm-Rt8CM8Dcj1MQm34KTL5ATF1ZUJy47yY25t-fso_g70G_laHM5Xso1EJymVBUIX7Ihrhjg7IZikSKalRO7jC4inWui_Q00L1Ai4ReuBbuxEvWlOfo9nQst35Xjgk23v1F8NUcB7Ojgm6MmIWC8ajoHVJ6EfEHZnqtWSHA928jLy02XUupxjZg7SACyZRE2l-NRXDPgXFfJZNALq-G6MMD5z7cNSum7jEe68t7x6jjHWmhOoCfjwHO7px35RoSharyQhqmcJAsq61tl8d9JyQ9k56faM0w3DRwf5bCvgMaQ4rMrwUCLUxxsLht9OboAhGn5NiUPMyFAbs41xFjjkHX40y7ww1vbVWmvE-riknmuKf-20-63yDM5AKZlzRVIzH1HC0JWIBqyS-Dv2mQ6oWjtO4UMrNRNvNB5ilEDLIcFePf5qo_ezuXt0XjoyfFxO2gbBT2Yy3Et8zy8J8-nLXeubduOvQUV2LD3aCadC9hn_3btiNAt1l95ZxDqUwLgDv7lveor4qbKAyqQwFuH4Ks1_8jAfIls3wbayNp2qEuEpkM_kwL3nqFWGSlZR7fbEtdIdaVtRNrsuNV3uAj5e_fDqAdup5Pn0QFozMC6woZNAGJUmwEFMpIEfCFZTb-Ospe3UE7AepoDzOvn7J6MM1R-hrsnvFU61V_6_IIrWtkWqzGgBlsNQPPaxqPAcVZunO47LE_oViF]--></g></svg>