<svg xmlns="http://www.w3.org/2000/svg" xmlns:xlink="http://www.w3.org/1999/xlink" contentStyleType="text/css" height="1037px" preserveAspectRatio="none" style="width:1438px;height:1037px;background:#FFFFFF;" version="1.1" viewBox="0 0 1438 1037" width="1438px" zoomAndPan="magnify"><defs/><g><rect fill="#F1F1F1" height="21.6094" rx="5" ry="5" style="stroke:#F1F1F1;stroke-width:1.5;" width="40" x="10" y="507"/><text fill="#000000" font-family="sans-serif" font-size="14" font-weight="bold" lengthAdjust="spacing" textLength="8" x="15" y="523.5332">1</text><text fill="#000000" font-family="sans-serif" font-size="14" lengthAdjust="spacing" textLength="12" x="33" y="523.5332">&#160;&#160;&#160;</text><line style="stroke:#000000;stroke-width:1.0;" x1="28" x2="28" y1="507" y2="528.6094"/><rect fill="none" height="21.6094" rx="5" ry="5" style="stroke:#000000;stroke-width:1.5;" width="40" x="10" y="507"/><rect fill="#F1F1F1" height="21.6094" rx="5" ry="5" style="stroke:#F1F1F1;stroke-width:1.5;" width="70" x="87" y="507"/><text fill="#000000" font-family="sans-serif" font-size="14" font-weight="bold" lengthAdjust="spacing" textLength="38" x="92" y="523.5332">EBSD</text><text fill="#000000" font-family="sans-serif" font-size="14" lengthAdjust="spacing" textLength="12" x="140" y="523.5332">&#160;&#160;&#160;</text><line style="stroke:#000000;stroke-width:1.0;" x1="135" x2="135" y1="507" y2="528.6094"/><rect fill="none" height="21.6094" rx="5" ry="5" style="stroke:#000000;stroke-width:1.5;" width="70" x="87" y="507"/><rect fill="#F1F1F1" height="21.6094" rx="5" ry="5" style="stroke:#F1F1F1;stroke-width:1.5;" width="83" x="194" y="507"/><text fill="#000000" font-family="sans-serif" font-size="14" font-weight="bold" lengthAdjust="spacing" textLength="51" x="199" y="523.5332">Header</text><text fill="#000000" font-family="sans-serif" font-size="14" lengthAdjust="spacing" textLength="12" x="260" y="523.5332">&#160;&#160;&#160;</text><line style="stroke:#000000;stroke-width:1.0;" x1="255" x2="255" y1="507" y2="528.6094"/><rect fill="none" height="21.6094" rx="5" ry="5" style="stroke:#000000;stroke-width:1.5;" width="83" x="194" y="507"/><rect fill="#F1F1F1" height="1015.6406" rx="5" ry="5" style="stroke:#F1F1F1;stroke-width:1.5;" width="502" x="314" y="10"/><text fill="#000000" font-family="sans-serif" font-size="14" font-weight="bold" lengthAdjust="spacing" textLength="114" x="319" y="26.5332">Acquisition Date</text><text fill="#000000" font-family="sans-serif" font-size="14" lengthAdjust="spacing" textLength="139" x="536" y="26.5332">2024-03-06T14:24:08</text><line style="stroke:#000000;stroke-width:1.0;" x1="531" x2="531" y1="10" y2="31.6094"/><line style="stroke:#000000;stroke-width:1.0;" x1="314" x2="816" y1="31.6094" y2="31.6094"/><text fill="#000000" font-family="sans-serif" font-size="14" font-weight="bold" lengthAdjust="spacing" textLength="127" x="319" y="48.1426">Acquisition Speed</text><text fill="#000000" font-family="sans-serif" font-size="14" lengthAdjust="spacing" textLength="68" x="536" y="48.1426">1.1787364</text><line style="stroke:#000000;stroke-width:1.0;" x1="531" x2="531" y1="31.6094" y2="53.2188"/><line style="stroke:#000000;stroke-width:1.0;" x1="314" x2="816" y1="53.2188" y2="53.2188"/><text fill="#000000" font-family="sans-serif" font-size="14" font-weight="bold" lengthAdjust="spacing" textLength="115" x="319" y="69.752">Acquisition Time</text><text fill="#000000" font-family="sans-serif" font-size="14" lengthAdjust="spacing" textLength="68" x="536" y="69.752">319.83398</text><line style="stroke:#000000;stroke-width:1.0;" x1="531" x2="531" y1="53.2188" y2="74.8281"/><line style="stroke:#000000;stroke-width:1.0;" x1="314" x2="816" y1="74.8281" y2="74.8281"/><text fill="#000000" font-family="sans-serif" font-size="14" font-weight="bold" lengthAdjust="spacing" textLength="99" x="319" y="91.3613">Analysis Label</text><text fill="#000000" font-family="sans-serif" font-size="14" lengthAdjust="spacing" textLength="168" x="536" y="91.3613">Elementverteilungsdaten 2</text><line style="stroke:#000000;stroke-width:1.0;" x1="531" x2="531" y1="74.8281" y2="96.4375"/><line style="stroke:#000000;stroke-width:1.0;" x1="314" x2="816" y1="96.4375" y2="96.4375"/><text fill="#000000" font-family="sans-serif" font-size="14" font-weight="bold" lengthAdjust="spacing" textLength="179" x="319" y="112.9707">Analysis Unique Identifier</text><text fill="#000000" font-family="sans-serif" font-size="14" lengthAdjust="spacing" textLength="40" x="536" y="112.9707">12345</text><line style="stroke:#000000;stroke-width:1.0;" x1="531" x2="531" y1="96.4375" y2="118.0469"/><line style="stroke:#000000;stroke-width:1.0;" x1="314" x2="816" y1="118.0469" y2="118.0469"/><text fill="#000000" font-family="sans-serif" font-size="14" font-weight="bold" lengthAdjust="spacing" textLength="200" x="319" y="134.5801">Auto Background Correction</text><text fill="#000000" font-family="sans-serif" font-size="14" lengthAdjust="spacing" textLength="8" x="536" y="134.5801">1</text><line style="stroke:#000000;stroke-width:1.0;" x1="531" x2="531" y1="118.0469" y2="139.6563"/><line style="stroke:#000000;stroke-width:1.0;" x1="314" x2="816" y1="139.6563" y2="139.6563"/><text fill="#000000" font-family="sans-serif" font-size="14" font-weight="bold" lengthAdjust="spacing" textLength="152" x="319" y="156.1895">Band Detection Mode</text><text fill="#000000" font-family="sans-serif" font-size="14" lengthAdjust="spacing" textLength="43" x="536" y="156.1895">Center</text><line style="stroke:#000000;stroke-width:1.0;" x1="531" x2="531" y1="139.6563" y2="161.2656"/><line style="stroke:#000000;stroke-width:1.0;" x1="314" x2="816" y1="161.2656" y2="161.2656"/><text fill="#000000" font-family="sans-serif" font-size="14" font-weight="bold" lengthAdjust="spacing" textLength="96" x="319" y="177.7988">Beam Voltage</text><text fill="#000000" font-family="sans-serif" font-size="14" lengthAdjust="spacing" textLength="28" x="536" y="177.7988">20.0</text><line style="stroke:#000000;stroke-width:1.0;" x1="531" x2="531" y1="161.2656" y2="182.875"/><line style="stroke:#000000;stroke-width:1.0;" x1="314" x2="816" y1="182.875" y2="182.875"/><text fill="#000000" font-family="sans-serif" font-size="14" font-weight="bold" lengthAdjust="spacing" textLength="132" x="319" y="199.4082">Bounding Box Size</text><text fill="#000000" font-family="sans-serif" font-size="14" lengthAdjust="spacing" textLength="112" x="536" y="199.4082">2.10000, 1.80000</text><line style="stroke:#000000;stroke-width:1.0;" x1="531" x2="531" y1="182.875" y2="204.4844"/><line style="stroke:#000000;stroke-width:1.0;" x1="314" x2="816" y1="204.4844" y2="204.4844"/><text fill="#000000" font-family="sans-serif" font-size="14" font-weight="bold" lengthAdjust="spacing" textLength="155" x="319" y="221.0176">Camera Binning Mode</text><text fill="#000000" font-family="sans-serif" font-size="14" lengthAdjust="spacing" textLength="67" x="536" y="221.0176">Resolution</text><line style="stroke:#000000;stroke-width:1.0;" x1="531" x2="531" y1="204.4844" y2="226.0938"/><line style="stroke:#000000;stroke-width:1.0;" x1="314" x2="816" y1="226.0938" y2="226.0938"/><text fill="#000000" font-family="sans-serif" font-size="14" font-weight="bold" lengthAdjust="spacing" textLength="161" x="319" y="242.627">Camera Exposure Time</text><text fill="#000000" font-family="sans-serif" font-size="14" lengthAdjust="spacing" textLength="68" x="536" y="242.627">24.782534</text><line style="stroke:#000000;stroke-width:1.0;" x1="531" x2="531" y1="226.0938" y2="247.7031"/><line style="stroke:#000000;stroke-width:1.0;" x1="314" x2="816" y1="247.7031" y2="247.7031"/><text fill="#000000" font-family="sans-serif" font-size="14" font-weight="bold" lengthAdjust="spacing" textLength="89" x="319" y="264.2363">Camera Gain</text><text fill="#000000" font-family="sans-serif" font-size="14" lengthAdjust="spacing" textLength="20" x="536" y="264.2363">1.0</text><line style="stroke:#000000;stroke-width:1.0;" x1="531" x2="531" y1="247.7031" y2="269.3125"/><line style="stroke:#000000;stroke-width:1.0;" x1="314" x2="816" y1="269.3125" y2="269.3125"/><text fill="#000000" font-family="sans-serif" font-size="14" font-weight="bold" lengthAdjust="spacing" textLength="193" x="319" y="285.8457">Detector Insertion Distance</text><text fill="#000000" font-family="sans-serif" font-size="14" lengthAdjust="spacing" textLength="68" x="536" y="285.8457">164.59364</text><line style="stroke:#000000;stroke-width:1.0;" x1="531" x2="531" y1="269.3125" y2="290.9219"/><line style="stroke:#000000;stroke-width:1.0;" x1="314" x2="816" y1="290.9219" y2="290.9219"/><text fill="#000000" font-family="sans-serif" font-size="14" font-weight="bold" lengthAdjust="spacing" textLength="185" x="319" y="307.4551">Detector Orientation Euler</text><text fill="#000000" font-family="sans-serif" font-size="14" lengthAdjust="spacing" textLength="172" x="536" y="307.4551">6.25944, 1.72326, 0.00484</text><line style="stroke:#000000;stroke-width:1.0;" x1="531" x2="531" y1="290.9219" y2="312.5313"/><line style="stroke:#000000;stroke-width:1.0;" x1="314" x2="816" y1="312.5313" y2="312.5313"/><text fill="#000000" font-family="sans-serif" font-size="14" font-weight="bold" lengthAdjust="spacing" textLength="109" x="319" y="329.0645">Drift Correction</text><text fill="#000000" font-family="sans-serif" font-size="14" lengthAdjust="spacing" textLength="8" x="536" y="329.0645">0</text><line style="stroke:#000000;stroke-width:1.0;" x1="531" x2="531" y1="312.5313" y2="334.1406"/><line style="stroke:#000000;stroke-width:1.0;" x1="314" x2="816" y1="334.1406" y2="334.1406"/><text fill="#000000" font-family="sans-serif" font-size="14" font-weight="bold" lengthAdjust="spacing" textLength="55" x="319" y="350.6738">Hit Rate</text><text fill="#000000" font-family="sans-serif" font-size="14" lengthAdjust="spacing" textLength="36" x="536" y="350.6738">100.0</text><line style="stroke:#000000;stroke-width:1.0;" x1="531" x2="531" y1="334.1406" y2="355.75"/><line style="stroke:#000000;stroke-width:1.0;" x1="314" x2="816" y1="355.75" y2="355.75"/><text fill="#000000" font-family="sans-serif" font-size="14" font-weight="bold" lengthAdjust="spacing" textLength="126" x="319" y="372.2832">Hough Resolution</text><text fill="#000000" font-family="sans-serif" font-size="14" lengthAdjust="spacing" textLength="24" x="536" y="372.2832">120</text><line style="stroke:#000000;stroke-width:1.0;" x1="531" x2="531" y1="355.75" y2="377.3594"/><line style="stroke:#000000;stroke-width:1.0;" x1="314" x2="816" y1="377.3594" y2="377.3594"/><text fill="#000000" font-family="sans-serif" font-size="14" font-weight="bold" lengthAdjust="spacing" textLength="105" x="319" y="393.8926">Indexing Mode</text><text fill="#000000" font-family="sans-serif" font-size="14" lengthAdjust="spacing" textLength="111" x="536" y="393.8926">Refined Accuracy</text><line style="stroke:#000000;stroke-width:1.0;" x1="531" x2="531" y1="377.3594" y2="398.9688"/><line style="stroke:#000000;stroke-width:1.0;" x1="314" x2="816" y1="398.9688" y2="398.9688"/><text fill="#000000" font-family="sans-serif" font-size="14" font-weight="bold" lengthAdjust="spacing" textLength="107" x="319" y="415.502">Lens Distortion</text><text fill="#000000" font-family="sans-serif" font-size="14" lengthAdjust="spacing" textLength="20" x="536" y="415.502">0.0</text><line style="stroke:#000000;stroke-width:1.0;" x1="531" x2="531" y1="398.9688" y2="420.5781"/><line style="stroke:#000000;stroke-width:1.0;" x1="314" x2="816" y1="420.5781" y2="420.5781"/><text fill="#000000" font-family="sans-serif" font-size="14" font-weight="bold" lengthAdjust="spacing" textLength="110" x="319" y="437.1113">Lens Field View</text><text fill="#000000" font-family="sans-serif" font-size="14" lengthAdjust="spacing" textLength="68" x="536" y="437.1113">23.986015</text><line style="stroke:#000000;stroke-width:1.0;" x1="531" x2="531" y1="420.5781" y2="442.1875"/><line style="stroke:#000000;stroke-width:1.0;" x1="314" x2="816" y1="442.1875" y2="442.1875"/><text fill="#000000" font-family="sans-serif" font-size="14" font-weight="bold" lengthAdjust="spacing" textLength="95" x="319" y="458.7207">Magnification</text><text fill="#000000" font-family="sans-serif" font-size="14" lengthAdjust="spacing" textLength="52" x="536" y="458.7207">48938.0</text><line style="stroke:#000000;stroke-width:1.0;" x1="531" x2="531" y1="442.1875" y2="463.7969"/><line style="stroke:#000000;stroke-width:1.0;" x1="314" x2="816" y1="463.7969" y2="463.7969"/><text fill="#000000" font-family="sans-serif" font-size="14" font-weight="bold" lengthAdjust="spacing" textLength="171" x="319" y="480.3301">Number Bands Detected</text><text fill="#000000" font-family="sans-serif" font-size="14" lengthAdjust="spacing" textLength="16" x="536" y="480.3301">12</text><line style="stroke:#000000;stroke-width:1.0;" x1="531" x2="531" y1="463.7969" y2="485.4063"/><line style="stroke:#000000;stroke-width:1.0;" x1="314" x2="816" y1="485.4063" y2="485.4063"/><text fill="#000000" font-family="sans-serif" font-size="14" font-weight="bold" lengthAdjust="spacing" textLength="183" x="319" y="501.9395">Number Frames Averaged</text><text fill="#000000" font-family="sans-serif" font-size="14" lengthAdjust="spacing" textLength="16" x="536" y="501.9395">34</text><line style="stroke:#000000;stroke-width:1.0;" x1="531" x2="531" y1="485.4063" y2="507.0156"/><line style="stroke:#000000;stroke-width:1.0;" x1="314" x2="816" y1="507.0156" y2="507.0156"/><text fill="#000000" font-family="sans-serif" font-size="14" font-weight="bold" lengthAdjust="spacing" textLength="101" x="319" y="523.5488">Pattern Height</text><text fill="#000000" font-family="sans-serif" font-size="14" lengthAdjust="spacing" textLength="32" x="536" y="523.5488">1024</text><line style="stroke:#000000;stroke-width:1.0;" x1="531" x2="531" y1="507.0156" y2="528.625"/><line style="stroke:#000000;stroke-width:1.0;" x1="314" x2="816" y1="528.625" y2="528.625"/><text fill="#000000" font-family="sans-serif" font-size="14" font-weight="bold" lengthAdjust="spacing" textLength="95" x="319" y="545.1582">Pattern Width</text><text fill="#000000" font-family="sans-serif" font-size="14" lengthAdjust="spacing" textLength="32" x="536" y="545.1582">1244</text><line style="stroke:#000000;stroke-width:1.0;" x1="531" x2="531" y1="528.625" y2="550.2344"/><line style="stroke:#000000;stroke-width:1.0;" x1="314" x2="816" y1="550.2344" y2="550.2344"/><text fill="#000000" font-family="sans-serif" font-size="14" font-weight="bold" lengthAdjust="spacing" textLength="51" x="319" y="566.7676">Phases</text><text fill="#000000" font-family="sans-serif" font-size="14" lengthAdjust="spacing" textLength="12" x="536" y="566.7676">&#160;&#160;&#160;</text><line style="stroke:#000000;stroke-width:1.0;" x1="531" x2="531" y1="550.2344" y2="571.8438"/><line style="stroke:#000000;stroke-width:1.0;" x1="314" x2="816" y1="571.8438" y2="571.8438"/><text fill="#000000" font-family="sans-serif" font-size="14" font-weight="bold" lengthAdjust="spacing" textLength="207" x="319" y="588.377">Processed Static Background</text><text fill="#000000" font-family="sans-serif" font-size="14" lengthAdjust="spacing" textLength="275" x="536" y="588.377">Several values, array with shape (512, 622)</text><line style="stroke:#000000;stroke-width:1.0;" x1="531" x2="531" y1="571.8438" y2="593.4531"/><line style="stroke:#000000;stroke-width:1.0;" x1="314" x2="816" y1="593.4531" y2="593.4531"/><text fill="#000000" font-family="sans-serif" font-size="14" font-weight="bold" lengthAdjust="spacing" textLength="80" x="319" y="609.9863">Project File</text><text fill="#000000" font-family="sans-serif" font-size="14" lengthAdjust="spacing" textLength="135" x="536" y="609.9863">C:/path/to/my_project</text><line style="stroke:#000000;stroke-width:1.0;" x1="531" x2="531" y1="593.4531" y2="615.0625"/><line style="stroke:#000000;stroke-width:1.0;" x1="314" x2="816" y1="615.0625" y2="615.0625"/><text fill="#000000" font-family="sans-serif" font-size="14" font-weight="bold" lengthAdjust="spacing" textLength="92" x="319" y="631.5957">Project Label</text><text fill="#000000" font-family="sans-serif" font-size="14" lengthAdjust="spacing" textLength="69" x="536" y="631.5957">my_project</text><line style="stroke:#000000;stroke-width:1.0;" x1="531" x2="531" y1="615.0625" y2="636.6719"/><line style="stroke:#000000;stroke-width:1.0;" x1="314" x2="816" y1="636.6719" y2="636.6719"/><text fill="#000000" font-family="sans-serif" font-size="14" font-weight="bold" lengthAdjust="spacing" textLength="95" x="319" y="653.2051">Project Notes</text><text fill="#000000" font-family="sans-serif" font-size="14" lengthAdjust="spacing" textLength="69" x="536" y="653.2051">my_project</text><line style="stroke:#000000;stroke-width:1.0;" x1="531" x2="531" y1="636.6719" y2="658.2813"/><line style="stroke:#000000;stroke-width:1.0;" x1="314" x2="816" y1="658.2813" y2="658.2813"/><text fill="#000000" font-family="sans-serif" font-size="14" font-weight="bold" lengthAdjust="spacing" textLength="105" x="319" y="674.8145">Relative Offset</text><text fill="#000000" font-family="sans-serif" font-size="14" lengthAdjust="spacing" textLength="112" x="536" y="674.8145">0.52035, 0.31957</text><line style="stroke:#000000;stroke-width:1.0;" x1="531" x2="531" y1="658.2813" y2="679.8906"/><line style="stroke:#000000;stroke-width:1.0;" x1="314" x2="816" y1="679.8906" y2="679.8906"/><text fill="#000000" font-family="sans-serif" font-size="14" font-weight="bold" lengthAdjust="spacing" textLength="91" x="319" y="696.4238">Relative Size</text><text fill="#000000" font-family="sans-serif" font-size="14" lengthAdjust="spacing" textLength="112" x="536" y="696.4238">0.24283, 0.30275</text><line style="stroke:#000000;stroke-width:1.0;" x1="531" x2="531" y1="679.8906" y2="701.5"/><line style="stroke:#000000;stroke-width:1.0;" x1="314" x2="816" y1="701.5" y2="701.5"/><text fill="#000000" font-family="sans-serif" font-size="14" font-weight="bold" lengthAdjust="spacing" textLength="172" x="319" y="718.0332">Scanning Rotation Angle</text><text fill="#000000" font-family="sans-serif" font-size="14" lengthAdjust="spacing" textLength="68" x="536" y="718.0332">3.1415927</text><line style="stroke:#000000;stroke-width:1.0;" x1="531" x2="531" y1="701.5" y2="723.1094"/><line style="stroke:#000000;stroke-width:1.0;" x1="314" x2="816" y1="723.1094" y2="723.1094"/><text fill="#000000" font-family="sans-serif" font-size="14" font-weight="bold" lengthAdjust="spacing" textLength="69" x="319" y="739.6426">Site Label</text><text fill="#000000" font-family="sans-serif" font-size="14" lengthAdjust="spacing" textLength="103" x="536" y="739.6426">Arbeitsbereich 2</text><line style="stroke:#000000;stroke-width:1.0;" x1="531" x2="531" y1="723.1094" y2="744.7188"/><line style="stroke:#000000;stroke-width:1.0;" x1="314" x2="816" y1="744.7188" y2="744.7188"/><text fill="#000000" font-family="sans-serif" font-size="14" font-weight="bold" lengthAdjust="spacing" textLength="72" x="319" y="761.252">Site Notes</text><text fill="#000000" font-family="sans-serif" font-size="14" lengthAdjust="spacing" textLength="4" x="536" y="761.252">&#160;</text><line style="stroke:#000000;stroke-width:1.0;" x1="531" x2="531" y1="744.7188" y2="766.3281"/><line style="stroke:#000000;stroke-width:1.0;" x1="314" x2="816" y1="766.3281" y2="766.3281"/><text fill="#000000" font-family="sans-serif" font-size="14" font-weight="bold" lengthAdjust="spacing" textLength="111" x="319" y="782.8613">Specimen Label</text><text fill="#000000" font-family="sans-serif" font-size="14" lengthAdjust="spacing" textLength="50" x="536" y="782.8613">Probe 1</text><line style="stroke:#000000;stroke-width:1.0;" x1="531" x2="531" y1="766.3281" y2="787.9375"/><line style="stroke:#000000;stroke-width:1.0;" x1="314" x2="816" y1="787.9375" y2="787.9375"/><text fill="#000000" font-family="sans-serif" font-size="14" font-weight="bold" lengthAdjust="spacing" textLength="114" x="319" y="804.4707">Specimen Notes</text><text fill="#000000" font-family="sans-serif" font-size="14" lengthAdjust="spacing" textLength="111" x="536" y="804.4707">magnet specimen</text><line style="stroke:#000000;stroke-width:1.0;" x1="531" x2="531" y1="787.9375" y2="809.5469"/><line style="stroke:#000000;stroke-width:1.0;" x1="314" x2="816" y1="809.5469" y2="809.5469"/><text fill="#000000" font-family="sans-serif" font-size="14" font-weight="bold" lengthAdjust="spacing" textLength="193" x="319" y="826.0801">Specimen Orientation Euler</text><text fill="#000000" font-family="sans-serif" font-size="14" lengthAdjust="spacing" textLength="172" x="536" y="826.0801">0.00000, 0.00000, 0.00000</text><line style="stroke:#000000;stroke-width:1.0;" x1="531" x2="531" y1="809.5469" y2="831.1563"/><line style="stroke:#000000;stroke-width:1.0;" x1="314" x2="816" y1="831.1563" y2="831.1563"/><text fill="#000000" font-family="sans-serif" font-size="14" font-weight="bold" lengthAdjust="spacing" textLength="101" x="319" y="847.6895">Stage Position</text><text fill="#000000" font-family="sans-serif" font-size="14" lengthAdjust="spacing" textLength="12" x="536" y="847.6895">&#160;&#160;&#160;</text><line style="stroke:#000000;stroke-width:1.0;" x1="531" x2="531" y1="831.1563" y2="852.7656"/><line style="stroke:#000000;stroke-width:1.0;" x1="314" x2="816" y1="852.7656" y2="852.7656"/><text fill="#000000" font-family="sans-serif" font-size="14" font-weight="bold" lengthAdjust="spacing" textLength="207" x="319" y="869.2988">Static Background Correction</text><text fill="#000000" font-family="sans-serif" font-size="14" lengthAdjust="spacing" textLength="8" x="536" y="869.2988">1</text><line style="stroke:#000000;stroke-width:1.0;" x1="531" x2="531" y1="852.7656" y2="874.375"/><line style="stroke:#000000;stroke-width:1.0;" x1="314" x2="816" y1="874.375" y2="874.375"/><text fill="#000000" font-family="sans-serif" font-size="14" font-weight="bold" lengthAdjust="spacing" textLength="65" x="319" y="890.9082">Tilt Angle</text><text fill="#000000" font-family="sans-serif" font-size="14" lengthAdjust="spacing" textLength="68" x="536" y="890.9082">1.2216749</text><line style="stroke:#000000;stroke-width:1.0;" x1="531" x2="531" y1="874.375" y2="895.9844"/><line style="stroke:#000000;stroke-width:1.0;" x1="314" x2="816" y1="895.9844" y2="895.9844"/><text fill="#000000" font-family="sans-serif" font-size="14" font-weight="bold" lengthAdjust="spacing" textLength="54" x="319" y="912.5176">Tilt Axis</text><text fill="#000000" font-family="sans-serif" font-size="14" lengthAdjust="spacing" textLength="20" x="536" y="912.5176">0.0</text><line style="stroke:#000000;stroke-width:1.0;" x1="531" x2="531" y1="895.9844" y2="917.5938"/><line style="stroke:#000000;stroke-width:1.0;" x1="314" x2="816" y1="917.5938" y2="917.5938"/><text fill="#000000" font-family="sans-serif" font-size="14" font-weight="bold" lengthAdjust="spacing" textLength="123" x="319" y="934.127">Working Distance</text><text fill="#000000" font-family="sans-serif" font-size="14" lengthAdjust="spacing" textLength="68" x="536" y="934.127">12.812612</text><line style="stroke:#000000;stroke-width:1.0;" x1="531" x2="531" y1="917.5938" y2="939.2031"/><line style="stroke:#000000;stroke-width:1.0;" x1="314" x2="816" y1="939.2031" y2="939.2031"/><text fill="#000000" font-family="sans-serif" font-size="14" font-weight="bold" lengthAdjust="spacing" textLength="48" x="319" y="955.7363">X Cells</text><text fill="#000000" font-family="sans-serif" font-size="14" lengthAdjust="spacing" textLength="16" x="536" y="955.7363">21</text><line style="stroke:#000000;stroke-width:1.0;" x1="531" x2="531" y1="939.2031" y2="960.8125"/><line style="stroke:#000000;stroke-width:1.0;" x1="314" x2="816" y1="960.8125" y2="960.8125"/><text fill="#000000" font-family="sans-serif" font-size="14" font-weight="bold" lengthAdjust="spacing" textLength="45" x="319" y="977.3457">X Step</text><text fill="#000000" font-family="sans-serif" font-size="14" lengthAdjust="spacing" textLength="20" x="536" y="977.3457">0.1</text><line style="stroke:#000000;stroke-width:1.0;" x1="531" x2="531" y1="960.8125" y2="982.4219"/><line style="stroke:#000000;stroke-width:1.0;" x1="314" x2="816" y1="982.4219" y2="982.4219"/><text fill="#000000" font-family="sans-serif" font-size="14" font-weight="bold" lengthAdjust="spacing" textLength="49" x="319" y="998.9551">Y Cells</text><text fill="#000000" font-family="sans-serif" font-size="14" lengthAdjust="spacing" textLength="16" x="536" y="998.9551">18</text><line style="stroke:#000000;stroke-width:1.0;" x1="531" x2="531" y1="982.4219" y2="1004.0313"/><line style="stroke:#000000;stroke-width:1.0;" x1="314" x2="816" y1="1004.0313" y2="1004.0313"/><text fill="#000000" font-family="sans-serif" font-size="14" font-weight="bold" lengthAdjust="spacing" textLength="46" x="319" y="1020.5645">Y Step</text><text fill="#000000" font-family="sans-serif" font-size="14" lengthAdjust="spacing" textLength="20" x="536" y="1020.5645">0.1</text><line style="stroke:#000000;stroke-width:1.0;" x1="531" x2="531" y1="1004.0313" y2="1025.6406"/><rect fill="none" height="1015.6406" rx="5" ry="5" style="stroke:#000000;stroke-width:1.5;" width="502" x="314" y="10"/><rect fill="#F1F1F1" height="21.6094" rx="5" ry="5" style="stroke:#F1F1F1;stroke-width:1.5;" width="40" x="922.5" y="550"/><text fill="#000000" font-family="sans-serif" font-size="14" font-weight="bold" lengthAdjust="spacing" textLength="8" x="927.5" y="566.5332">1</text><text fill="#000000" font-family="sans-serif" font-size="14" lengthAdjust="spacing" textLength="12" x="945.5" y="566.5332">&#160;&#160;&#160;</text><line style="stroke:#000000;stroke-width:1.0;" x1="940.5" x2="940.5" y1="550" y2="571.6094"/><rect fill="none" height="21.6094" rx="5" ry="5" style="stroke:#000000;stroke-width:1.5;" width="40" x="922.5" y="550"/><rect fill="#F1F1F1" height="216.0938" rx="5" ry="5" style="stroke:#F1F1F1;stroke-width:1.5;" width="357" x="1069" y="452.9531"/><text fill="#000000" font-family="sans-serif" font-size="14" font-weight="bold" lengthAdjust="spacing" textLength="38" x="1074" y="469.4863">Color</text><text fill="#000000" font-family="sans-serif" font-size="14" lengthAdjust="spacing" textLength="204" x="1217" y="469.4863">255.00000, 255.00000, 0.00000</text><line style="stroke:#000000;stroke-width:1.0;" x1="1212" x2="1212" y1="452.9531" y2="474.5625"/><line style="stroke:#000000;stroke-width:1.0;" x1="1069" x2="1426" y1="474.5625" y2="474.5625"/><text fill="#000000" font-family="sans-serif" font-size="14" font-weight="bold" lengthAdjust="spacing" textLength="82" x="1074" y="491.0957">Database Id</text><text fill="#000000" font-family="sans-serif" font-size="14" lengthAdjust="spacing" textLength="8" x="1217" y="491.0957">0</text><line style="stroke:#000000;stroke-width:1.0;" x1="1212" x2="1212" y1="474.5625" y2="496.1719"/><line style="stroke:#000000;stroke-width:1.0;" x1="1069" x2="1426" y1="496.1719" y2="496.1719"/><text fill="#000000" font-family="sans-serif" font-size="14" font-weight="bold" lengthAdjust="spacing" textLength="99" x="1074" y="512.7051">Lattice Angles</text><text fill="#000000" font-family="sans-serif" font-size="14" lengthAdjust="spacing" textLength="172" x="1217" y="512.7051">1.57080, 1.57080, 1.57080</text><line style="stroke:#000000;stroke-width:1.0;" x1="1212" x2="1212" y1="496.1719" y2="517.7813"/><line style="stroke:#000000;stroke-width:1.0;" x1="1069" x2="1426" y1="517.7813" y2="517.7813"/><text fill="#000000" font-family="sans-serif" font-size="14" font-weight="bold" lengthAdjust="spacing" textLength="133" x="1074" y="534.3145">Lattice Dimensions</text><text fill="#000000" font-family="sans-serif" font-size="14" lengthAdjust="spacing" textLength="172" x="1217" y="534.3145">2.30000, 2.30000, 2.30000</text><line style="stroke:#000000;stroke-width:1.0;" x1="1212" x2="1212" y1="517.7813" y2="539.3906"/><line style="stroke:#000000;stroke-width:1.0;" x1="1069" x2="1426" y1="539.3906" y2="539.3906"/><text fill="#000000" font-family="sans-serif" font-size="14" font-weight="bold" lengthAdjust="spacing" textLength="82" x="1074" y="555.9238">Laue Group</text><text fill="#000000" font-family="sans-serif" font-size="14" lengthAdjust="spacing" textLength="8" x="1217" y="555.9238">7</text><line style="stroke:#000000;stroke-width:1.0;" x1="1212" x2="1212" y1="539.3906" y2="561"/><line style="stroke:#000000;stroke-width:1.0;" x1="1069" x2="1426" y1="561" y2="561"/><text fill="#000000" font-family="sans-serif" font-size="14" font-weight="bold" lengthAdjust="spacing" textLength="132" x="1074" y="577.5332">Number Reflectors</text><text fill="#000000" font-family="sans-serif" font-size="14" lengthAdjust="spacing" textLength="24" x="1217" y="577.5332">195</text><line style="stroke:#000000;stroke-width:1.0;" x1="1212" x2="1212" y1="561" y2="582.6094"/><line style="stroke:#000000;stroke-width:1.0;" x1="1069" x2="1426" y1="582.6094" y2="582.6094"/><text fill="#000000" font-family="sans-serif" font-size="14" font-weight="bold" lengthAdjust="spacing" textLength="60" x="1074" y="599.1426">Phase Id</text><text fill="#000000" font-family="sans-serif" font-size="14" lengthAdjust="spacing" textLength="8" x="1217" y="599.1426">0</text><line style="stroke:#000000;stroke-width:1.0;" x1="1212" x2="1212" y1="582.6094" y2="604.2188"/><line style="stroke:#000000;stroke-width:1.0;" x1="1069" x2="1426" y1="604.2188" y2="604.2188"/><text fill="#000000" font-family="sans-serif" font-size="14" font-weight="bold" lengthAdjust="spacing" textLength="86" x="1074" y="620.752">Phase Name</text><text fill="#000000" font-family="sans-serif" font-size="14" lengthAdjust="spacing" textLength="84" x="1217" y="620.752">Cubic_Phase</text><line style="stroke:#000000;stroke-width:1.0;" x1="1212" x2="1212" y1="604.2188" y2="625.8281"/><line style="stroke:#000000;stroke-width:1.0;" x1="1069" x2="1426" y1="625.8281" y2="625.8281"/><text fill="#000000" font-family="sans-serif" font-size="14" font-weight="bold" lengthAdjust="spacing" textLength="74" x="1074" y="642.3613">Reference</text><text fill="#000000" font-family="sans-serif" font-size="14" lengthAdjust="spacing" textLength="187" x="1217" y="642.3613">Author, Jounal, Volume, Page</text><line style="stroke:#000000;stroke-width:1.0;" x1="1212" x2="1212" y1="625.8281" y2="647.4375"/><line style="stroke:#000000;stroke-width:1.0;" x1="1069" x2="1426" y1="647.4375" y2="647.4375"/><text fill="#000000" font-family="sans-serif" font-size="14" font-weight="bold" lengthAdjust="spacing" textLength="91" x="1074" y="663.9707">Space Group</text><text fill="#000000" font-family="sans-serif" font-size="14" lengthAdjust="spacing" textLength="24" x="1217" y="663.9707">123</text><line style="stroke:#000000;stroke-width:1.0;" x1="1212" x2="1212" y1="647.4375" y2="669.0469"/><rect fill="none" height="216.0938" rx="5" ry="5" style="stroke:#000000;stroke-width:1.5;" width="357" x="1069" y="452.9531"/><rect fill="#F1F1F1" height="108.0469" rx="5" ry="5" style="stroke:#F1F1F1;stroke-width:1.5;" width="179" x="853" y="787.9766"/><text fill="#000000" font-family="sans-serif" font-size="14" font-weight="bold" lengthAdjust="spacing" textLength="59" x="858" y="804.5098">Rotation</text><text fill="#000000" font-family="sans-serif" font-size="14" lengthAdjust="spacing" textLength="100" x="927" y="804.5098">0.00010530264</text><line style="stroke:#000000;stroke-width:1.0;" x1="922" x2="922" y1="787.9766" y2="809.5859"/><line style="stroke:#000000;stroke-width:1.0;" x1="853" x2="1032" y1="809.5859" y2="809.5859"/><text fill="#000000" font-family="sans-serif" font-size="14" font-weight="bold" lengthAdjust="spacing" textLength="21" x="858" y="826.1191">Tilt</text><text fill="#000000" font-family="sans-serif" font-size="14" lengthAdjust="spacing" textLength="68" x="927" y="826.1191">1.2216749</text><line style="stroke:#000000;stroke-width:1.0;" x1="922" x2="922" y1="809.5859" y2="831.1953"/><line style="stroke:#000000;stroke-width:1.0;" x1="853" x2="1032" y1="831.1953" y2="831.1953"/><text fill="#000000" font-family="sans-serif" font-size="14" font-weight="bold" lengthAdjust="spacing" textLength="9" x="858" y="847.7285">X</text><text fill="#000000" font-family="sans-serif" font-size="14" lengthAdjust="spacing" textLength="57" x="927" y="847.7285">-2.29784</text><line style="stroke:#000000;stroke-width:1.0;" x1="922" x2="922" y1="831.1953" y2="852.8047"/><line style="stroke:#000000;stroke-width:1.0;" x1="853" x2="1032" y1="852.8047" y2="852.8047"/><text fill="#000000" font-family="sans-serif" font-size="14" font-weight="bold" lengthAdjust="spacing" textLength="10" x="858" y="869.3379">Y</text><text fill="#000000" font-family="sans-serif" font-size="14" lengthAdjust="spacing" textLength="52" x="927" y="869.3379">0.18001</text><line style="stroke:#000000;stroke-width:1.0;" x1="922" x2="922" y1="852.8047" y2="874.4141"/><line style="stroke:#000000;stroke-width:1.0;" x1="853" x2="1032" y1="874.4141" y2="874.4141"/><text fill="#000000" font-family="sans-serif" font-size="14" font-weight="bold" lengthAdjust="spacing" textLength="8" x="858" y="890.9473">Z</text><text fill="#000000" font-family="sans-serif" font-size="14" lengthAdjust="spacing" textLength="60" x="927" y="890.9473">12.81005</text><line style="stroke:#000000;stroke-width:1.0;" x1="922" x2="922" y1="874.4141" y2="896.0234"/><rect fill="none" height="108.0469" rx="5" ry="5" style="stroke:#000000;stroke-width:1.5;" width="179" x="853" y="787.9766"/><path d="M951,561 L964,561 C995.4987,561 1028.9694,561 1061.449,561 " fill="none" style="stroke:#000000;stroke-width:1.0;stroke-dasharray:3.0,3.0;"/><path d="M1061.449,564.1164 L1063.7863,561 L1061.449,557.8836 L1069.2399,561 L1061.449,564.1164 " fill="#000000" style="stroke:#000000;stroke-width:1.0;"/><ellipse cx="951" cy="561" fill="#000000" rx="3" ry="3" style="stroke:#000000;stroke-width:1.0;"/><path d="M804,561 L817,561 C850.8771,561 889.9186,561 915.2292,561 " fill="none" style="stroke:#000000;stroke-width:1.0;stroke-dasharray:3.0,3.0;"/><path d="M915.2292,564.0845 L917.5426,561 L915.2292,557.9155 L922.9406,561 L915.2292,564.0845 " fill="#000000" style="stroke:#000000;stroke-width:1.0;"/><ellipse cx="804" cy="561" fill="#000000" rx="3" ry="3" style="stroke:#000000;stroke-width:1.0;"/><path d="M804,842 L817,842 C826.2468,842 835.8784,842 845.5105,842 " fill="none" style="stroke:#000000;stroke-width:1.0;stroke-dasharray:3.0,3.0;"/><path d="M845.5105,845.087 L847.8258,842 L845.5105,838.913 L853.2281,842 L845.5105,845.087 " fill="#000000" style="stroke:#000000;stroke-width:1.0;"/><ellipse cx="804" cy="842" fill="#000000" rx="3" ry="3" style="stroke:#000000;stroke-width:1.0;"/><path d="M265,518 L278,518 C287.5127,518 297.2031,518 306.9914,518 " fill="none" style="stroke:#000000;stroke-width:1.0;stroke-dasharray:3.0,3.0;"/><path d="M306.9914,521.0012 L309.2424,518 L306.9914,514.9988 L314.4945,518 L306.9914,521.0012 " fill="#000000" style="stroke:#000000;stroke-width:1.0;"/><ellipse cx="265" cy="518" fill="#000000" rx="3" ry="3" style="stroke:#000000;stroke-width:1.0;"/><path d="M145,518 L158,518 C167.2824,518 177.1943,518 186.7113,518 " fill="none" style="stroke:#000000;stroke-width:1.0;stroke-dasharray:3.0,3.0;"/><path d="M186.7113,521.0113 L188.9697,518 L186.7113,514.9887 L194.2394,518 L186.7113,521.0113 " fill="#000000" style="stroke:#000000;stroke-width:1.0;"/><ellipse cx="145" cy="518" fill="#000000" rx="3" ry="3" style="stroke:#000000;stroke-width:1.0;"/><path d="M38,518 L51,518 C60.2753,518 70.237,518 79.666,518 " fill="none" style="stroke:#000000;stroke-width:1.0;stroke-dasharray:3.0,3.0;"/><path d="M79.666,521.1073 L81.9965,518 L79.666,514.8927 L87.4343,518 L79.666,521.1073 " fill="#000000" style="stroke:#000000;stroke-width:1.0;"/><ellipse cx="38" cy="518" fill="#000000" rx="3" ry="3" style="stroke:#000000;stroke-width:1.0;"/><!--SRC=[VLPRKziw47xFhzZ94ym4rvRjnCbJIGW5ocqmfUrvwIYEIDGwSYh95CuP_ljPII6nKhSyC8htszLUljtLUwMfrDzL9Jh_TG2wKNS4ve37wJW_sVx2tsUCpfbiVC5lnyNFcYkkUINWX6g6qYu9IN8KnaTX_pvAHYGPXLctrwwIhncR6vqeY0RP8EudVqBUyvKr7aV388lZeMzIqF95SGMNTCPA0vkMRCM4Vc9ICrxMOg7cw9q0qghsIV2VDOFpEQhmHsw3x4OaJb8FNkiAnhJuiP1LBUOmgQHaXV7EmflGCKNv2TDE35VLt3e_GVjel0baT0KFLQdfOfEx8FJavYOk5Z2kdY7d_pfG48NuruCeoCoXgJ2XAoOfZBaGHktjvZkcghAslluEdZwlArLBjaqoIO91Hj8uQG5_eDp5wplgWgqad0k5IRTyuCWjKLYBKJy9qk5UVRSwDv9ZPgZLcjQboty_8EamIKoK0nAJVWymDs6I-IOaVzHxbV3yEkCQxZR4nApvJfzLzM89ZTpOidkGSp5dptuc7xbWSpWkYbhIugK9lcH2sR0hkNN6lz4YJZahv_30sI-Rx3WOPlqmyhXsHHS2cLZGDpj9DemptzPrlPen2OPhQaEsJJEH5jYfnFefECQMGAvPd5_VMwgHd0BE65yijSiNQKLyvdEzT1SbFc195LFUXF16oevBLLdP8fCq3K97viOnT8U6QLTigkaCRy16tQ-pIoxwnmi6ns9HMZUGfEaWp6od-8S_gPvW1mY5ELUkqUADRtk7tzLnV7p0iR0sQeDzyQO4I9tI4jxvDaptSJP_VuhE2Q-fQz59FUF5D_jj7uZNCCasZOT3Qrd97bpW8A5bpyoQUiLwS6i6pfvYlgP58mmSWDq6u7LxVcsMN5O5KmeR8ZSDN3G6fB6HCyEt4fveMJFL0oebVO5VN2z1BUcQmK4QaHxq2Jdi-bQ_OwQmKqeNxUZTckhbErszMxryMpjfcy9s0VmTTbrfHv1ss1qhCPOd1ZUFZuffrySf2UFKS1DNK3feXRyDw30W2SbY2mx9mElilA1kDDzLcubdwMhxCOYIA1qIptZEDTk5TIndZ6k5R6AyMFhhp2AtaNcIDIiCiNTsC14p1b4hQ9SS749CWze8Mi6jeplSQ-IsZkxcPkV1RUKM_FxGUClErbmKffXBRu4Wx9wNRbG5X4JzGJBqnL-Cx8W4P3Z8zZI_EiiHRj38b_pZo1zak2_IRYlhV-Fwtnu3niTTaTiytK2UkMfP6Pyh-SFmnLkdnZlIzmVz5vYmidI3A_85kMRhJRnDmTUTHfJvWgP6fpa0pF_NpcldFHDp-spit9PKw4zNbu2jRaOdpbZp10pIWxp6jm_sE-b358sYT9HcC9dczs3aXvs3g_DxK5KjSUhCCJh9PtOD7tOkw1E5knfVOoisWfir4nSd7zy-m5GySLa9yy3hN3nSxG3zv6YC-pvd4bs1XwlE2NkaDQPsAehAFAD6yEd-z2ZhN5Ang95-8s2YCy42QlaoWW_Z_m40]--></g></svg>