<?xml version="1.0" encoding="us-ascii" standalone="no"?><svg xmlns="http://www.w3.org/2000/svg" xmlns:xlink="http://www.w3.org/1999/xlink" contentStyleType="text/css" height="1038px" preserveAspectRatio="none" style="width:395px;height:1038px;background:#FFFFFF;" version="1.1" viewBox="0 0 395 1038" width="395px" zoomAndPan="magnify"><defs/><g><rect fill="#F1F1F1" height="151.2656" rx="5" ry="5" style="stroke:#F1F1F1;stroke-width:1.5;" width="97" x="10" y="388.5859"/><text fill="#000000" font-family="sans-serif" font-size="14" font-weight="bold" lengthAdjust="spacing" textLength="56" x="15" y="405.1191">General</text><text fill="#000000" font-family="sans-serif" font-size="14" lengthAdjust="spacing" textLength="12" x="90" y="405.1191">&#160;&#160;&#160;</text><line style="stroke:#000000;stroke-width:1.0;" x1="85" x2="85" y1="388.5859" y2="410.1953"/><line style="stroke:#000000;stroke-width:1.0;" x1="10" x2="107" y1="410.1953" y2="410.1953"/><text fill="#000000" font-family="sans-serif" font-size="14" font-weight="bold" lengthAdjust="spacing" textLength="31" x="15" y="426.7285">SEM</text><text fill="#000000" font-family="sans-serif" font-size="14" lengthAdjust="spacing" textLength="12" x="90" y="426.7285">&#160;&#160;&#160;</text><line style="stroke:#000000;stroke-width:1.0;" x1="85" x2="85" y1="410.1953" y2="431.8047"/><line style="stroke:#000000;stroke-width:1.0;" x1="10" x2="107" y1="431.8047" y2="431.8047"/><text fill="#000000" font-family="sans-serif" font-size="14" font-weight="bold" lengthAdjust="spacing" textLength="39" x="15" y="448.3379">Beam</text><text fill="#000000" font-family="sans-serif" font-size="14" lengthAdjust="spacing" textLength="12" x="90" y="448.3379">&#160;&#160;&#160;</text><line style="stroke:#000000;stroke-width:1.0;" x1="85" x2="85" y1="431.8047" y2="453.4141"/><line style="stroke:#000000;stroke-width:1.0;" x1="10" x2="107" y1="453.4141" y2="453.4141"/><text fill="#000000" font-family="sans-serif" font-size="14" font-weight="bold" lengthAdjust="spacing" textLength="65" x="15" y="469.9473">Scanning</text><text fill="#000000" font-family="sans-serif" font-size="14" lengthAdjust="spacing" textLength="12" x="90" y="469.9473">&#160;&#160;&#160;</text><line style="stroke:#000000;stroke-width:1.0;" x1="85" x2="85" y1="453.4141" y2="475.0234"/><rect fill="#CCFF02" height="21.6094" rx="2" ry="2" style="stroke:#CCFF02;stroke-width:1.0;" width="95" x="11.5" y="475.0234"/><line style="stroke:#000000;stroke-width:1.0;" x1="10" x2="107" y1="475.0234" y2="475.0234"/><text fill="#000000" font-family="sans-serif" font-size="14" font-weight="bold" lengthAdjust="spacing" textLength="61" x="15" y="491.5566">Detector</text><text fill="#000000" font-family="sans-serif" font-size="14" lengthAdjust="spacing" textLength="12" x="90" y="491.5566">&#160;&#160;&#160;</text><line style="stroke:#000000;stroke-width:1.0;" x1="85" x2="85" y1="475.0234" y2="496.6328"/><line style="stroke:#000000;stroke-width:1.0;" x1="10" x2="107" y1="496.6328" y2="496.6328"/><text fill="#000000" font-family="sans-serif" font-size="14" font-weight="bold" lengthAdjust="spacing" textLength="42" x="15" y="513.166">Image</text><text fill="#000000" font-family="sans-serif" font-size="14" lengthAdjust="spacing" textLength="12" x="90" y="513.166">&#160;&#160;&#160;</text><line style="stroke:#000000;stroke-width:1.0;" x1="85" x2="85" y1="496.6328" y2="518.2422"/><line style="stroke:#000000;stroke-width:1.0;" x1="10" x2="107" y1="518.2422" y2="518.2422"/><text fill="#000000" font-family="sans-serif" font-size="14" font-weight="bold" lengthAdjust="spacing" textLength="40" x="15" y="534.7754">Stage</text><text fill="#000000" font-family="sans-serif" font-size="14" lengthAdjust="spacing" textLength="12" x="90" y="534.7754">&#160;&#160;&#160;</text><line style="stroke:#000000;stroke-width:1.0;" x1="85" x2="85" y1="518.2422" y2="539.8516"/><rect fill="none" height="151.2656" rx="5" ry="5" style="stroke:#000000;stroke-width:1.5;" width="97" x="10" y="388.5859"/><rect fill="#F1F1F1" height="86.4375" rx="5" ry="5" style="stroke:#F1F1F1;stroke-width:1.5;" width="238" x="144.5" y="10"/><text fill="#000000" font-family="sans-serif" font-size="14" font-weight="bold" lengthAdjust="spacing" textLength="32" x="149.5" y="26.5332">Date</text><text fill="#000000" font-family="sans-serif" font-size="14" lengthAdjust="spacing" textLength="72" x="242.5" y="26.5332">01/19/2022</text><line style="stroke:#000000;stroke-width:1.0;" x1="237.5" x2="237.5" y1="10" y2="31.6094"/><line style="stroke:#000000;stroke-width:1.0;" x1="144.5" x2="382.5" y1="31.6094" y2="31.6094"/><text fill="#000000" font-family="sans-serif" font-size="14" font-weight="bold" lengthAdjust="spacing" textLength="33" x="149.5" y="48.1426">Time</text><text fill="#000000" font-family="sans-serif" font-size="14" lengthAdjust="spacing" textLength="80" x="242.5" y="48.1426">10:01:44 PM</text><line style="stroke:#000000;stroke-width:1.0;" x1="237.5" x2="237.5" y1="31.6094" y2="53.2188"/><line style="stroke:#000000;stroke-width:1.0;" x1="144.5" x2="382.5" y1="53.2188" y2="53.2188"/><text fill="#000000" font-family="sans-serif" font-size="14" font-weight="bold" lengthAdjust="spacing" textLength="33" x="149.5" y="69.752">User</text><text fill="#000000" font-family="sans-serif" font-size="14" lengthAdjust="spacing" textLength="28" x="242.5" y="69.752">user</text><line style="stroke:#000000;stroke-width:1.0;" x1="237.5" x2="237.5" y1="53.2188" y2="74.8281"/><line style="stroke:#000000;stroke-width:1.0;" x1="144.5" x2="382.5" y1="74.8281" y2="74.8281"/><text fill="#000000" font-family="sans-serif" font-size="14" font-weight="bold" lengthAdjust="spacing" textLength="83" x="149.5" y="91.3613">SystemType</text><text fill="#000000" font-family="sans-serif" font-size="14" lengthAdjust="spacing" textLength="135" x="242.5" y="91.3613">Helios NanoLab" 600i</text><line style="stroke:#000000;stroke-width:1.0;" x1="237.5" x2="237.5" y1="74.8281" y2="96.4375"/><rect fill="none" height="86.4375" rx="5" ry="5" style="stroke:#000000;stroke-width:1.5;" width="238" x="144.5" y="10"/><rect fill="#F1F1F1" height="43.2188" rx="5" ry="5" style="stroke:#F1F1F1;stroke-width:1.5;" width="187" x="170" y="114.6094"/><text fill="#000000" font-family="sans-serif" font-size="14" font-weight="bold" lengthAdjust="spacing" textLength="19" x="175" y="131.1426">HV</text><text fill="#000000" font-family="sans-serif" font-size="14" lengthAdjust="spacing" textLength="40" x="268" y="131.1426">10000</text><line style="stroke:#000000;stroke-width:1.0;" x1="263" x2="263" y1="114.6094" y2="136.2188"/><line style="stroke:#000000;stroke-width:1.0;" x1="170" x2="357" y1="136.2188" y2="136.2188"/><text fill="#000000" font-family="sans-serif" font-size="14" font-weight="bold" lengthAdjust="spacing" textLength="83" x="175" y="152.752">ChPressure</text><text fill="#000000" font-family="sans-serif" font-size="14" lengthAdjust="spacing" textLength="84" x="268" y="152.752">0.000251035</text><line style="stroke:#000000;stroke-width:1.0;" x1="263" x2="263" y1="136.2188" y2="157.8281"/><rect fill="none" height="43.2188" rx="5" ry="5" style="stroke:#000000;stroke-width:1.5;" width="187" x="170" y="114.6094"/><rect fill="#F1F1F1" height="172.875" rx="5" ry="5" style="stroke:#F1F1F1;stroke-width:1.5;" width="239" x="144" y="175.7188"/><text fill="#000000" font-family="sans-serif" font-size="14" font-weight="bold" lengthAdjust="spacing" textLength="125" x="149" y="192.252">ApertureDiameter</text><text fill="#000000" font-family="sans-serif" font-size="14" lengthAdjust="spacing" textLength="36" x="284" y="192.252">0.001</text><line style="stroke:#000000;stroke-width:1.0;" x1="279" x2="279" y1="175.7188" y2="197.3281"/><line style="stroke:#000000;stroke-width:1.0;" x1="144" x2="383" y1="197.3281" y2="197.3281"/><text fill="#000000" font-family="sans-serif" font-size="14" font-weight="bold" lengthAdjust="spacing" textLength="32" x="149" y="213.8613">Spot</text><text fill="#000000" font-family="sans-serif" font-size="14" lengthAdjust="spacing" textLength="8" x="284" y="213.8613">2</text><line style="stroke:#000000;stroke-width:1.0;" x1="279" x2="279" y1="197.3281" y2="218.9375"/><line style="stroke:#000000;stroke-width:1.0;" x1="144" x2="383" y1="218.9375" y2="218.9375"/><text fill="#000000" font-family="sans-serif" font-size="14" font-weight="bold" lengthAdjust="spacing" textLength="93" x="149" y="235.4707">BeamCurrent</text><text fill="#000000" font-family="sans-serif" font-size="14" lengthAdjust="spacing" textLength="57" x="284" y="235.4707">1.1e-008</text><line style="stroke:#000000;stroke-width:1.0;" x1="279" x2="279" y1="218.9375" y2="240.5469"/><line style="stroke:#000000;stroke-width:1.0;" x1="144" x2="383" y1="240.5469" y2="240.5469"/><text fill="#000000" font-family="sans-serif" font-size="14" font-weight="bold" lengthAdjust="spacing" textLength="123" x="149" y="257.0801">SpecimenCurrent</text><text fill="#000000" font-family="sans-serif" font-size="14" lengthAdjust="spacing" textLength="94" x="284" y="257.0801">-2.84262e-009</text><line style="stroke:#000000;stroke-width:1.0;" x1="279" x2="279" y1="240.5469" y2="262.1563"/><line style="stroke:#000000;stroke-width:1.0;" x1="144" x2="383" y1="262.1563" y2="262.1563"/><text fill="#000000" font-family="sans-serif" font-size="14" font-weight="bold" lengthAdjust="spacing" textLength="76" x="149" y="278.6895">StigmatorX</text><text fill="#000000" font-family="sans-serif" font-size="14" lengthAdjust="spacing" textLength="94" x="284" y="278.6895">-1.27695e-005</text><line style="stroke:#000000;stroke-width:1.0;" x1="279" x2="279" y1="262.1563" y2="283.7656"/><line style="stroke:#000000;stroke-width:1.0;" x1="144" x2="383" y1="283.7656" y2="283.7656"/><text fill="#000000" font-family="sans-serif" font-size="14" font-weight="bold" lengthAdjust="spacing" textLength="77" x="149" y="300.2988">StigmatorY</text><text fill="#000000" font-family="sans-serif" font-size="14" lengthAdjust="spacing" textLength="76" x="284" y="300.2988">0.00356054</text><line style="stroke:#000000;stroke-width:1.0;" x1="279" x2="279" y1="283.7656" y2="305.375"/><line style="stroke:#000000;stroke-width:1.0;" x1="144" x2="383" y1="305.375" y2="305.375"/><text fill="#000000" font-family="sans-serif" font-size="14" font-weight="bold" lengthAdjust="spacing" textLength="80" x="149" y="321.9082">BeamShiftX</text><text fill="#000000" font-family="sans-serif" font-size="14" lengthAdjust="spacing" textLength="94" x="284" y="321.9082">-1.98749e-005</text><line style="stroke:#000000;stroke-width:1.0;" x1="279" x2="279" y1="305.375" y2="326.9844"/><line style="stroke:#000000;stroke-width:1.0;" x1="144" x2="383" y1="326.9844" y2="326.9844"/><text fill="#000000" font-family="sans-serif" font-size="14" font-weight="bold" lengthAdjust="spacing" textLength="81" x="149" y="343.5176">BeamShiftY</text><text fill="#000000" font-family="sans-serif" font-size="14" lengthAdjust="spacing" textLength="89" x="284" y="343.5176">7.18575e-006</text><line style="stroke:#000000;stroke-width:1.0;" x1="279" x2="279" y1="326.9844" y2="348.5938"/><rect fill="none" height="172.875" rx="5" ry="5" style="stroke:#000000;stroke-width:1.5;" width="239" x="144" y="175.7188"/><rect fill="#F1F1F1" height="194.4844" rx="5" ry="5" style="stroke:#F1F1F1;stroke-width:1.5;" width="206" x="160.5" y="366.9766"/><text fill="#000000" font-family="sans-serif" font-size="14" font-weight="bold" lengthAdjust="spacing" textLength="77" x="165.5" y="383.5098">FrameTime</text><text fill="#000000" font-family="sans-serif" font-size="14" lengthAdjust="spacing" textLength="52" x="309.5" y="383.5098">64.5584</text><line style="stroke:#000000;stroke-width:1.0;" x1="304.5" x2="304.5" y1="366.9766" y2="388.5859"/><line style="stroke:#000000;stroke-width:1.0;" x1="160.5" x2="366.5" y1="388.5859" y2="388.5859"/><text fill="#000000" font-family="sans-serif" font-size="14" font-weight="bold" lengthAdjust="spacing" textLength="63" x="165.5" y="405.1191">LineTime</text><text fill="#000000" font-family="sans-serif" font-size="14" lengthAdjust="spacing" textLength="44" x="309.5" y="405.1191">0.0314</text><line style="stroke:#000000;stroke-width:1.0;" x1="304.5" x2="304.5" y1="388.5859" y2="410.1953"/><line style="stroke:#000000;stroke-width:1.0;" x1="160.5" x2="366.5" y1="410.1953" y2="410.1953"/><text fill="#000000" font-family="sans-serif" font-size="14" font-weight="bold" lengthAdjust="spacing" textLength="68" x="165.5" y="426.7285">Dwelltime</text><text fill="#000000" font-family="sans-serif" font-size="14" lengthAdjust="spacing" textLength="45" x="309.5" y="426.7285">1e-005</text><line style="stroke:#000000;stroke-width:1.0;" x1="304.5" x2="304.5" y1="410.1953" y2="431.8047"/><line style="stroke:#000000;stroke-width:1.0;" x1="160.5" x2="366.5" y1="431.8047" y2="431.8047"/><text fill="#000000" font-family="sans-serif" font-size="14" font-weight="bold" lengthAdjust="spacing" textLength="59" x="165.5" y="448.3379">Average</text><text fill="#000000" font-family="sans-serif" font-size="14" lengthAdjust="spacing" textLength="8" x="309.5" y="448.3379">0</text><line style="stroke:#000000;stroke-width:1.0;" x1="304.5" x2="304.5" y1="431.8047" y2="453.4141"/><line style="stroke:#000000;stroke-width:1.0;" x1="160.5" x2="366.5" y1="453.4141" y2="453.4141"/><text fill="#000000" font-family="sans-serif" font-size="14" font-weight="bold" lengthAdjust="spacing" textLength="64" x="165.5" y="469.9473">Integrate</text><text fill="#000000" font-family="sans-serif" font-size="14" lengthAdjust="spacing" textLength="8" x="309.5" y="469.9473">1</text><line style="stroke:#000000;stroke-width:1.0;" x1="304.5" x2="304.5" y1="453.4141" y2="475.0234"/><line style="stroke:#000000;stroke-width:1.0;" x1="160.5" x2="366.5" y1="475.0234" y2="475.0234"/><text fill="#000000" font-family="sans-serif" font-size="14" font-weight="bold" lengthAdjust="spacing" textLength="93" x="165.5" y="491.5566">ScanRotation</text><text fill="#000000" font-family="sans-serif" font-size="14" lengthAdjust="spacing" textLength="8" x="309.5" y="491.5566">0</text><line style="stroke:#000000;stroke-width:1.0;" x1="304.5" x2="304.5" y1="475.0234" y2="496.6328"/><line style="stroke:#000000;stroke-width:1.0;" x1="160.5" x2="366.5" y1="496.6328" y2="496.6328"/><text fill="#000000" font-family="sans-serif" font-size="14" font-weight="bold" lengthAdjust="spacing" textLength="128" x="165.5" y="513.166">TiltCorrectionIsOn</text><text fill="#000000" font-family="sans-serif" font-size="14" lengthAdjust="spacing" textLength="16" x="309.5" y="513.166">no</text><line style="stroke:#000000;stroke-width:1.0;" x1="304.5" x2="304.5" y1="496.6328" y2="518.2422"/><line style="stroke:#000000;stroke-width:1.0;" x1="160.5" x2="366.5" y1="518.2422" y2="518.2422"/><text fill="#000000" font-family="sans-serif" font-size="14" font-weight="bold" lengthAdjust="spacing" textLength="133" x="165.5" y="534.7754">DynamicFocusIsOn</text><text fill="#000000" font-family="sans-serif" font-size="14" lengthAdjust="spacing" textLength="22" x="309.5" y="534.7754">yes</text><line style="stroke:#000000;stroke-width:1.0;" x1="304.5" x2="304.5" y1="518.2422" y2="539.8516"/><line style="stroke:#000000;stroke-width:1.0;" x1="160.5" x2="366.5" y1="539.8516" y2="539.8516"/><text fill="#000000" font-family="sans-serif" font-size="14" font-weight="bold" lengthAdjust="spacing" textLength="134" x="165.5" y="556.3848">MinimumDwellTime</text><text fill="#000000" font-family="sans-serif" font-size="14" lengthAdjust="spacing" textLength="45" x="309.5" y="556.3848">1e-007</text><line style="stroke:#000000;stroke-width:1.0;" x1="304.5" x2="304.5" y1="539.8516" y2="561.4609"/><rect fill="none" height="194.4844" rx="5" ry="5" style="stroke:#000000;stroke-width:1.5;" width="206" x="160.5" y="366.9766"/><rect fill="#F1F1F1" height="129.6563" rx="5" ry="5" style="stroke:#F1F1F1;stroke-width:1.5;" width="149" x="189" y="579.2188"/><text fill="#000000" font-family="sans-serif" font-size="14" font-weight="bold" lengthAdjust="spacing" textLength="55" x="194" y="595.752">Number</text><text fill="#000000" font-family="sans-serif" font-size="14" lengthAdjust="spacing" textLength="8" x="281" y="595.752">1</text><line style="stroke:#000000;stroke-width:1.0;" x1="276" x2="276" y1="579.2188" y2="600.8281"/><rect fill="#008000" height="21.6094" rx="2" ry="2" style="stroke:#008000;stroke-width:1.0;" width="147" x="190.5" y="600.8281"/><line style="stroke:#000000;stroke-width:1.0;" x1="189" x2="338" y1="600.8281" y2="600.8281"/><text fill="#FFFFFF" font-family="sans-serif" font-size="14" font-style="italic" lengthAdjust="spacing" textLength="37" x="194" y="617.3613">Name</text><text fill="#FFFFFF" font-family="sans-serif" font-size="14" font-style="italic" lengthAdjust="spacing" textLength="26" x="281" y="617.3613">vCD</text><line style="stroke:#000000;stroke-width:1.0;" x1="276" x2="276" y1="600.8281" y2="622.4375"/><line style="stroke:#000000;stroke-width:1.0;" x1="189" x2="338" y1="622.4375" y2="622.4375"/><text fill="#000000" font-family="sans-serif" font-size="14" font-weight="bold" lengthAdjust="spacing" textLength="43" x="194" y="638.9707">Signal</text><text fill="#000000" font-family="sans-serif" font-size="14" lengthAdjust="spacing" textLength="27" x="281" y="638.9707">BSE</text><line style="stroke:#000000;stroke-width:1.0;" x1="276" x2="276" y1="622.4375" y2="644.0469"/><line style="stroke:#000000;stroke-width:1.0;" x1="189" x2="338" y1="644.0469" y2="644.0469"/><text fill="#000000" font-family="sans-serif" font-size="14" font-weight="bold" lengthAdjust="spacing" textLength="40" x="194" y="660.5801">Mode</text><text fill="#000000" font-family="sans-serif" font-size="14" lengthAdjust="spacing" textLength="33" x="281" y="660.5801">None</text><line style="stroke:#000000;stroke-width:1.0;" x1="276" x2="276" y1="644.0469" y2="665.6563"/><line style="stroke:#000000;stroke-width:1.0;" x1="189" x2="338" y1="665.6563" y2="665.6563"/><text fill="#000000" font-family="sans-serif" font-size="14" font-weight="bold" lengthAdjust="spacing" textLength="60" x="194" y="682.1895">Contrast</text><text fill="#000000" font-family="sans-serif" font-size="14" lengthAdjust="spacing" textLength="52" x="281" y="682.1895">55.0995</text><line style="stroke:#000000;stroke-width:1.0;" x1="276" x2="276" y1="665.6563" y2="687.2656"/><line style="stroke:#000000;stroke-width:1.0;" x1="189" x2="338" y1="687.2656" y2="687.2656"/><text fill="#000000" font-family="sans-serif" font-size="14" font-weight="bold" lengthAdjust="spacing" textLength="77" x="194" y="703.7988">Brightness</text><text fill="#000000" font-family="sans-serif" font-size="14" lengthAdjust="spacing" textLength="52" x="281" y="703.7988">30.6549</text><line style="stroke:#000000;stroke-width:1.0;" x1="276" x2="276" y1="687.2656" y2="708.875"/><rect fill="none" height="129.6563" rx="5" ry="5" style="stroke:#000000;stroke-width:1.5;" width="149" x="189" y="579.2188"/><rect fill="#F1F1F1" height="151.2656" rx="5" ry="5" style="stroke:#F1F1F1;stroke-width:1.5;" width="196" x="165.5" y="727.5859"/><text fill="#000000" font-family="sans-serif" font-size="14" font-weight="bold" lengthAdjust="spacing" textLength="85" x="170.5" y="744.1191">ResolutionX</text><text fill="#000000" font-family="sans-serif" font-size="14" lengthAdjust="spacing" textLength="32" x="266.5" y="744.1191">3072</text><line style="stroke:#000000;stroke-width:1.0;" x1="261.5" x2="261.5" y1="727.5859" y2="749.1953"/><line style="stroke:#000000;stroke-width:1.0;" x1="165.5" x2="361.5" y1="749.1953" y2="749.1953"/><text fill="#000000" font-family="sans-serif" font-size="14" font-weight="bold" lengthAdjust="spacing" textLength="86" x="170.5" y="765.7285">ResolutionY</text><text fill="#000000" font-family="sans-serif" font-size="14" lengthAdjust="spacing" textLength="32" x="266.5" y="765.7285">2048</text><line style="stroke:#000000;stroke-width:1.0;" x1="261.5" x2="261.5" y1="749.1953" y2="770.8047"/><rect fill="#FF0000" height="21.6094" rx="2" ry="2" style="stroke:#FF0000;stroke-width:1.0;" width="194" x="167" y="770.8047"/><line style="stroke:#000000;stroke-width:1.0;" x1="165.5" x2="361.5" y1="770.8047" y2="770.8047"/><text fill="#FFFFFF" font-family="sans-serif" font-size="14" font-weight="bold" lengthAdjust="spacing" textLength="74" x="170.5" y="787.3379">PixelWidth</text><text fill="#FFFFFF" font-family="sans-serif" font-size="14" font-weight="bold" lengthAdjust="spacing" textLength="90" x="266.5" y="787.3379">4.85677e-007</text><line style="stroke:#000000;stroke-width:1.0;" x1="261.5" x2="261.5" y1="770.8047" y2="792.4141"/><line style="stroke:#000000;stroke-width:1.0;" x1="165.5" x2="361.5" y1="792.4141" y2="792.4141"/><text fill="#000000" font-family="sans-serif" font-size="14" font-weight="bold" lengthAdjust="spacing" textLength="32" x="170.5" y="808.9473">HFW</text><text fill="#000000" font-family="sans-serif" font-size="14" lengthAdjust="spacing" textLength="60" x="266.5" y="808.9473">0.001492</text><line style="stroke:#000000;stroke-width:1.0;" x1="261.5" x2="261.5" y1="792.4141" y2="814.0234"/><line style="stroke:#000000;stroke-width:1.0;" x1="165.5" x2="361.5" y1="814.0234" y2="814.0234"/><text fill="#000000" font-family="sans-serif" font-size="14" font-weight="bold" lengthAdjust="spacing" textLength="31" x="170.5" y="830.5566">VFW</text><text fill="#000000" font-family="sans-serif" font-size="14" lengthAdjust="spacing" textLength="84" x="266.5" y="830.5566">0.000994667</text><line style="stroke:#000000;stroke-width:1.0;" x1="261.5" x2="261.5" y1="814.0234" y2="835.6328"/><line style="stroke:#000000;stroke-width:1.0;" x1="165.5" x2="361.5" y1="835.6328" y2="835.6328"/><text fill="#000000" font-family="sans-serif" font-size="14" font-weight="bold" lengthAdjust="spacing" textLength="77" x="170.5" y="852.166">Brightness</text><text fill="#000000" font-family="sans-serif" font-size="14" lengthAdjust="spacing" textLength="8" x="266.5" y="852.166">0</text><line style="stroke:#000000;stroke-width:1.0;" x1="261.5" x2="261.5" y1="835.6328" y2="857.2422"/><line style="stroke:#000000;stroke-width:1.0;" x1="165.5" x2="361.5" y1="857.2422" y2="857.2422"/><text fill="#000000" font-family="sans-serif" font-size="14" font-weight="bold" lengthAdjust="spacing" textLength="60" x="170.5" y="873.7754">Contrast</text><text fill="#000000" font-family="sans-serif" font-size="14" lengthAdjust="spacing" textLength="52" x="266.5" y="873.7754">55.0995</text><line style="stroke:#000000;stroke-width:1.0;" x1="261.5" x2="261.5" y1="857.2422" y2="878.8516"/><rect fill="none" height="151.2656" rx="5" ry="5" style="stroke:#000000;stroke-width:1.5;" width="196" x="165.5" y="727.5859"/><rect fill="#F1F1F1" height="129.6563" rx="5" ry="5" style="stroke:#F1F1F1;stroke-width:1.5;" width="152" x="187.5" y="897.2188"/><text fill="#000000" font-family="sans-serif" font-size="14" font-weight="bold" lengthAdjust="spacing" textLength="49" x="192.5" y="913.752">StageX</text><text fill="#000000" font-family="sans-serif" font-size="14" lengthAdjust="spacing" textLength="73" x="258.5" y="913.752">-0.0104883</text><line style="stroke:#000000;stroke-width:1.0;" x1="253.5" x2="253.5" y1="897.2188" y2="918.8281"/><line style="stroke:#000000;stroke-width:1.0;" x1="187.5" x2="339.5" y1="918.8281" y2="918.8281"/><text fill="#000000" font-family="sans-serif" font-size="14" font-weight="bold" lengthAdjust="spacing" textLength="50" x="192.5" y="935.3613">StageY</text><text fill="#000000" font-family="sans-serif" font-size="14" lengthAdjust="spacing" textLength="73" x="258.5" y="935.3613">-0.0154792</text><line style="stroke:#000000;stroke-width:1.0;" x1="253.5" x2="253.5" y1="918.8281" y2="940.4375"/><line style="stroke:#000000;stroke-width:1.0;" x1="187.5" x2="339.5" y1="940.4375" y2="940.4375"/><text fill="#000000" font-family="sans-serif" font-size="14" font-weight="bold" lengthAdjust="spacing" textLength="48" x="192.5" y="956.9707">StageZ</text><text fill="#000000" font-family="sans-serif" font-size="14" lengthAdjust="spacing" textLength="44" x="258.5" y="956.9707">0.0065</text><line style="stroke:#000000;stroke-width:1.0;" x1="253.5" x2="253.5" y1="940.4375" y2="962.0469"/><line style="stroke:#000000;stroke-width:1.0;" x1="187.5" x2="339.5" y1="962.0469" y2="962.0469"/><text fill="#000000" font-family="sans-serif" font-size="14" font-weight="bold" lengthAdjust="spacing" textLength="50" x="192.5" y="978.5801">StageR</text><text fill="#000000" font-family="sans-serif" font-size="14" lengthAdjust="spacing" textLength="73" x="258.5" y="978.5801">-0.0104353</text><line style="stroke:#000000;stroke-width:1.0;" x1="253.5" x2="253.5" y1="962.0469" y2="983.6563"/><line style="stroke:#000000;stroke-width:1.0;" x1="187.5" x2="339.5" y1="983.6563" y2="983.6563"/><text fill="#000000" font-family="sans-serif" font-size="14" font-weight="bold" lengthAdjust="spacing" textLength="56" x="192.5" y="1000.1895">StageTa</text><text fill="#000000" font-family="sans-serif" font-size="14" lengthAdjust="spacing" textLength="73" x="258.5" y="1000.1895">1.309e-005</text><line style="stroke:#000000;stroke-width:1.0;" x1="253.5" x2="253.5" y1="983.6563" y2="1005.2656"/><line style="stroke:#000000;stroke-width:1.0;" x1="187.5" x2="339.5" y1="1005.2656" y2="1005.2656"/><text fill="#000000" font-family="sans-serif" font-size="14" font-weight="bold" lengthAdjust="spacing" textLength="23" x="192.5" y="1021.7988">WD</text><text fill="#000000" font-family="sans-serif" font-size="14" lengthAdjust="spacing" textLength="76" x="258.5" y="1021.7988">0.00674993</text><line style="stroke:#000000;stroke-width:1.0;" x1="253.5" x2="253.5" y1="1005.2656" y2="1026.875"/><rect fill="none" height="129.6563" rx="5" ry="5" style="stroke:#000000;stroke-width:1.5;" width="152" x="187.5" y="897.2188"/><path d="M97,400.2188 L97,387.2188 C97,323.6877 104.9483,155.3303 144,105.2188 C144.8099,104.1795 145.6448,103.1606 146.5031,102.1617 " fill="none" style="stroke:#000000;stroke-width:1.0;stroke-dasharray:3.0,3.0;"/><path d="M148.7054,104.2265 L148.0517,100.51 L144.3009,100.097 L151.665,96.6562 L148.7054,104.2265 " fill="#000000" style="stroke:#000000;stroke-width:1.0;"/><ellipse cx="97" cy="400.2188" fill="#000000" rx="3" ry="3" style="stroke:#000000;stroke-width:1.0;"/><path d="M95,421.2188 L108,421.2188 C165.2286,421.2188 105.7488,208.7859 144,166.2188 C149.5606,160.0307 156.1934,155.0324 163.4419,151.0049 " fill="none" style="stroke:#000000;stroke-width:1.0;stroke-dasharray:3.0,3.0;"/><path d="M164.8148,153.7317 L165.487,149.9753 L162.0691,148.2782 L170.2588,147.5728 L164.8148,153.7317 " fill="#000000" style="stroke:#000000;stroke-width:1.0;"/><ellipse cx="95" cy="421.2188" fill="#000000" rx="3" ry="3" style="stroke:#000000;stroke-width:1.0;"/><path d="M95,442.2188 L108,442.2188 C148.6175,442.2188 119.4696,390.5922 144,358.2188 C144.9017,357.0287 145.8213,355.8446 146.7575,354.6667 " fill="none" style="stroke:#000000;stroke-width:1.0;stroke-dasharray:3.0,3.0;"/><path d="M149.0918,356.5922 L148.2016,352.916 L144.4233,352.7413 L151.5712,348.8311 L149.0918,356.5922 " fill="#000000" style="stroke:#000000;stroke-width:1.0;"/><ellipse cx="95" cy="442.2188" fill="#000000" rx="3" ry="3" style="stroke:#000000;stroke-width:1.0;"/><path d="M95,464.2188 L108,464.2188 C122.5512,464.2188 137.8708,464.2188 152.985,464.2188 " fill="none" style="stroke:#000000;stroke-width:1.0;stroke-dasharray:3.0,3.0;"/><path d="M152.985,467.3707 L155.349,464.2188 L152.985,461.0668 L160.8649,464.2188 L152.985,467.3707 " fill="#000000" style="stroke:#000000;stroke-width:1.0;"/><ellipse cx="95" cy="464.2188" fill="#000000" rx="3" ry="3" style="stroke:#000000;stroke-width:1.0;"/><path d="M95,486.2188 L108,486.2188 C148.6175,486.2188 117.5341,539.4075 144,570.2188 C154.9287,582.9418 168.6015,594.1789 182.7478,603.8077 " fill="none" style="stroke:#000000;stroke-width:1.0;stroke-dasharray:3.0,3.0;"/><path d="M181.0237,606.4176 L184.7053,605.1008 L184.472,601.1978 L189.2726,608.1181 L181.0237,606.4176 " fill="#000000" style="stroke:#000000;stroke-width:1.0;"/><ellipse cx="95" cy="486.2188" fill="#000000" rx="3" ry="3" style="stroke:#000000;stroke-width:1.0;"/><path d="M95,507.2188 L108,507.2188 C155.5665,507.2188 118.7427,677.912 144,718.2188 C148.6868,725.6982 154.2953,732.7138 160.4888,739.2536 " fill="none" style="stroke:#000000;stroke-width:1.0;stroke-dasharray:3.0,3.0;"/><path d="M158.3363,741.3867 L162.0885,740.868 L162.6413,737.1205 L165.8214,744.6348 L158.3363,741.3867 " fill="#000000" style="stroke:#000000;stroke-width:1.0;"/><ellipse cx="95" cy="507.2188" fill="#000000" rx="3" ry="3" style="stroke:#000000;stroke-width:1.0;"/><path d="M97,528.2188 L97,541.2188 C97,619.034 101.711,822.8976 144,888.2188 C153.4864,902.8717 167.003,915.124 181.5456,925.1701 " fill="none" style="stroke:#000000;stroke-width:1.0;stroke-dasharray:3.0,3.0;"/><path d="M179.8772,927.6848 L183.4316,926.4214 L183.214,922.6555 L187.8322,929.3412 L179.8772,927.6848 " fill="#000000" style="stroke:#000000;stroke-width:1.0;"/><ellipse cx="97" cy="528.2188" fill="#000000" rx="3" ry="3" style="stroke:#000000;stroke-width:1.0;"/><!--SRC=[ZLNRRjiu57pNLn3gImji5DqeMKPGjBRZN3PEWrX9siM-q38hSLSY0ufAroZwxpsaBCf6BrW3Xk4pm-7my8pqhbL4gdzQmPspLkrg-jP1oAi2z1L-4PgHujyBAJg-dOjQI5HAIhb1beAhllQbOehQsbgB8AP8pGeeVZDouI_a9Dt-3x6DgBT6wknqR_5LnSggXgz2xe8gMYWXtPzNqIboRqb3NNHsLWLlZzTUDQIaXdB7_gFr4zkgoX1386hBxWNbL9BQdUvFu2w8el3FzOFJ83iD_J1q_-YHd3K62Vof7qpZ6Dsj1kYXfL93dVxTrzQxLj4ctpsRHPUqPg95juIB6xBvsqM9xpDNdrhJtVNvQhHm-TXl0vz1R5xTITgsdUozUG25EF0ZF4hCA6b6ZVVFL2gWBnZqHlNkzBB0sdiMIXVjyVJwUISbvQOUU04zyVt9oAS5D80VK4v2RnA7IQXvcUKfLZO4RkQZeGHUc2OPrXJy0-NJu2h2YO_ZGoVhYdrMWqGsIUFiIC9IZ4Jg1HEScasIWvuMX7F6ox4fImdD6AunYJsC9tRJ6yOj19QYm2ABBxIkrN3vHpRUly3mbFsQeNR55ItbVeh6TeEPUw68Oe8VqNDMGpIWfuM6hjeF1kR2xhxZf675KXHTEw0xsWxmYd7MT8tnc1zwJCT6sApOHjnspQQV2MlGP0WAB_E5zSnARgBXpjRdTaEnDRnRmQcTJeYo9AqP2emzFyl6Yv8wYHncLuEHxoKupaPhVK2jhtlQYhhJZVZOqrCxdYDahZpqOpkQ1za69FOcE4dJlWTxnkNooGOWpgpcurW6pt6If3-txV_keEEygQEpcB_z1CC60VYTH6C20FjaCHodeoc3_JNuIl1H_Vv0ByB7UZdfSnlvnrbvMbWnY54M6SVED-STvLlpOd3kQiBLm-e6mJYtq644gVN3s8jUvrM7bdI30en2Vnh3am-Z-NcEDFp6URswob4hEbbGj6MjacnZRkYDSqrU2Bhlk8xD57ruflnwyUTGGEVyXKd1uMcYdEl7rKX8ufCPKsXD9JX1ZojdGJ-JhbQmeX1RoF8KFUJBaubpGtZPmPcd25vNStZXABcReelPTm00]--></g></svg>