<svg xmlns="http://www.w3.org/2000/svg" xmlns:xlink="http://www.w3.org/1999/xlink" contentStyleType="text/css" height="277px" preserveAspectRatio="none" style="width:134px;height:277px;background:#FFFFFF;" version="1.1" viewBox="0 0 134 277" width="134px" zoomAndPan="magnify"><defs/><g><rect fill="#0D0887" height="35.0938" rx="12.5" ry="12.5" style="stroke:#181818;stroke-width:0.5;" width="80" x="27" y="11"/><text fill="#FFFFFF" font-family="sans-serif" font-size="12" lengthAdjust="spacing" textLength="60" x="37" y="33.457">User Case</text><rect fill="#9C179E" height="35.0938" rx="12.5" ry="12.5" style="stroke:#181818;stroke-width:0.5;" width="82" x="26" y="66.0938"/><text fill="#FFFFFF" font-family="sans-serif" font-size="12" lengthAdjust="spacing" textLength="62" x="36" y="88.5508">Experiment</text><rect fill="#ED7953" height="35.0938" rx="12.5" ry="12.5" style="stroke:#181818;stroke-width:0.5;" width="74" x="30" y="121.1875"/><text fill="#FFFFFF" font-family="sans-serif" font-size="12" lengthAdjust="spacing" textLength="54" x="40" y="143.6445">Raw Data</text><rect fill="#F0F921" height="35.0938" rx="12.5" ry="12.5" style="stroke:#181818;stroke-width:0.5;" width="112" x="11" y="176.2813"/><text fill="#000000" font-family="sans-serif" font-size="12" lengthAdjust="spacing" textLength="92" x="21" y="198.7383">Data Processing</text><rect fill="#F0F921" height="35.0938" rx="12.5" ry="12.5" style="stroke:#0000FF;stroke-width:2.0;" width="76" x="29" y="231.375"/><text fill="#000000" font-family="sans-serif" font-size="12" lengthAdjust="spacing" textLength="56" x="39" y="253.832">Final Data</text><line style="stroke:#181818;stroke-width:1.0;" x1="67" x2="67" y1="46.0938" y2="66.0938"/><polygon fill="#181818" points="63,56.0938,67,66.0938,71,56.0938,67,60.0938" style="stroke:#181818;stroke-width:1.0;"/><line style="stroke:#181818;stroke-width:1.0;" x1="67" x2="67" y1="101.1875" y2="121.1875"/><polygon fill="#181818" points="63,111.1875,67,121.1875,71,111.1875,67,115.1875" style="stroke:#181818;stroke-width:1.0;"/><line style="stroke:#181818;stroke-width:1.0;" x1="67" x2="67" y1="156.2813" y2="176.2813"/><polygon fill="#181818" points="63,166.2813,67,176.2813,71,166.2813,67,170.2813" style="stroke:#181818;stroke-width:1.0;"/><line style="stroke:#181818;stroke-width:1.0;" x1="67" x2="67" y1="211.375" y2="231.375"/><polygon fill="#181818" points="63,221.375,67,231.375,71,221.375,67,225.375" style="stroke:#181818;stroke-width:1.0;"/><!--SRC=[FOp12i8m38RlUuhu0Cxx78EnALx48NWkOMPQMBkITCp7jn4fv93l_v9_5z_a2AwtxjBsxJxCA0vXuiL1MHxI_BmKrKE8eKEX8zJrci2C2Pgcg4wVG6mT-QYACgcxumOzHbJ3k9bdsZNN30PUHXAn_gLQbGavqgkpzJZd_qdft_05]--></g></svg>