<?xml version="1.0" encoding="us-ascii" standalone="no"?><svg xmlns="http://www.w3.org/2000/svg" xmlns:xlink="http://www.w3.org/1999/xlink" contentStyleType="text/css" height="377px" preserveAspectRatio="none" style="width:347px;height:377px;background:#FFFFFF;" version="1.1" viewBox="0 0 347 377" width="347px" zoomAndPan="magnify"><defs/><g><rect fill="#0D0887" height="35.0938" rx="12.5" ry="12.5" style="stroke:#181818;stroke-width:0.5;" width="80" x="134" y="11"/><text fill="#FFFFFF" font-family="sans-serif" font-size="12" lengthAdjust="spacing" textLength="60" x="144" y="33.457">User Case</text><rect fill="#C0C0C0" height="310.1699" rx="5" ry="5" style="stroke:#0000CD;stroke-width:1.5;" width="325.5" x="11" y="56.0938"/><path d="M150,56.0938 L150,66.7031 L140,76.7031 L11,76.7031 " fill="none" style="stroke:#0000CD;stroke-width:1.5;"/><text fill="#0000CD" font-family="sans-serif" font-size="14" lengthAdjust="spacing" textLength="129" x="14" y="71.627">Group of techniques</text><line style="stroke:#181818;stroke-width:1.5;" x1="91.5" x2="256.5" y1="93.7031" y2="93.7031"/><rect fill="#F5F5DC" height="249.9844" rx="5" ry="5" style="stroke:#1E90FF;stroke-width:1.5;" width="137" x="23" y="104.2793"/><path d="M150,104.2793 L150,114.8887 L140,124.8887 L23,124.8887 " fill="none" style="stroke:#1E90FF;stroke-width:1.5;"/><text fill="#1E90FF" font-family="sans-serif" font-size="14" lengthAdjust="spacing" textLength="117" x="26" y="119.8125">Single technique 1</text><rect fill="#9C179E" height="35.0938" rx="12.5" ry="12.5" style="stroke:#181818;stroke-width:0.5;" width="82" x="50.5" y="141.8887"/><text fill="#FFFFFF" font-family="sans-serif" font-size="12" lengthAdjust="spacing" textLength="62" x="60.5" y="164.3457">Experiment</text><rect fill="#ED7953" height="35.0938" rx="12.5" ry="12.5" style="stroke:#181818;stroke-width:0.5;" width="74" x="54.5" y="196.9824"/><text fill="#FFFFFF" font-family="sans-serif" font-size="12" lengthAdjust="spacing" textLength="54" x="64.5" y="219.4395">Raw Data</text><rect fill="#F0F921" height="35.0938" rx="12.5" ry="12.5" style="stroke:#181818;stroke-width:0.5;" width="112" x="35.5" y="252.0762"/><text fill="#000000" font-family="sans-serif" font-size="12" lengthAdjust="spacing" textLength="92" x="45.5" y="274.5332">Data Processing</text><rect fill="#F0F921" height="35.0938" rx="12.5" ry="12.5" style="stroke:#0000FF;stroke-width:2.0;" width="76" x="53.5" y="307.1699"/><text fill="#000000" font-family="sans-serif" font-size="12" lengthAdjust="spacing" textLength="56" x="63.5" y="329.627">Final Data</text><rect fill="#F5F5DC" height="249.9844" rx="5" ry="5" style="stroke:#1E90FF;stroke-width:1.5;" width="136.5" x="188" y="104.2793"/><path d="M315,104.2793 L315,114.8887 L305,124.8887 L188,124.8887 " fill="none" style="stroke:#1E90FF;stroke-width:1.5;"/><text fill="#1E90FF" font-family="sans-serif" font-size="14" lengthAdjust="spacing" textLength="117" x="191" y="119.8125">Single technique 2</text><rect fill="#9C179E" height="35.0938" rx="12.5" ry="12.5" style="stroke:#181818;stroke-width:0.5;" width="82" x="215.5" y="141.8887"/><text fill="#FFFFFF" font-family="sans-serif" font-size="12" lengthAdjust="spacing" textLength="62" x="225.5" y="164.3457">Experiment</text><rect fill="#ED7953" height="35.0938" rx="12.5" ry="12.5" style="stroke:#181818;stroke-width:0.5;" width="74" x="219.5" y="196.9824"/><text fill="#FFFFFF" font-family="sans-serif" font-size="12" lengthAdjust="spacing" textLength="54" x="229.5" y="219.4395">Raw Data</text><rect fill="#F0F921" height="35.0938" rx="12.5" ry="12.5" style="stroke:#181818;stroke-width:0.5;" width="112" x="200.5" y="252.0762"/><text fill="#000000" font-family="sans-serif" font-size="12" lengthAdjust="spacing" textLength="92" x="210.5" y="274.5332">Data Processing</text><rect fill="#F0F921" height="35.0938" rx="12.5" ry="12.5" style="stroke:#0000FF;stroke-width:2.0;" width="76" x="218.5" y="307.1699"/><text fill="#000000" font-family="sans-serif" font-size="12" lengthAdjust="spacing" textLength="56" x="228.5" y="329.627">Final Data</text><line style="stroke:#181818;stroke-width:1.0;" x1="91.5" x2="91.5" y1="176.9824" y2="196.9824"/><polygon fill="#181818" points="87.5,186.9824,91.5,196.9824,95.5,186.9824,91.5,190.9824" style="stroke:#181818;stroke-width:1.0;"/><line style="stroke:#181818;stroke-width:1.0;" x1="91.5" x2="91.5" y1="232.0762" y2="252.0762"/><polygon fill="#181818" points="87.5,242.0762,91.5,252.0762,95.5,242.0762,91.5,246.0762" style="stroke:#181818;stroke-width:1.0;"/><line style="stroke:#181818;stroke-width:1.0;" x1="91.5" x2="91.5" y1="287.1699" y2="307.1699"/><polygon fill="#181818" points="87.5,297.1699,91.5,307.1699,95.5,297.1699,91.5,301.1699" style="stroke:#181818;stroke-width:1.0;"/><line style="stroke:#181818;stroke-width:1.0;" x1="256.5" x2="256.5" y1="176.9824" y2="196.9824"/><polygon fill="#181818" points="252.5,186.9824,256.5,196.9824,260.5,186.9824,256.5,190.9824" style="stroke:#181818;stroke-width:1.0;"/><line style="stroke:#181818;stroke-width:1.0;" x1="256.5" x2="256.5" y1="232.0762" y2="252.0762"/><polygon fill="#181818" points="252.5,242.0762,256.5,252.0762,260.5,242.0762,256.5,246.0762" style="stroke:#181818;stroke-width:1.0;"/><line style="stroke:#181818;stroke-width:1.0;" x1="256.5" x2="256.5" y1="287.1699" y2="307.1699"/><polygon fill="#181818" points="252.5,297.1699,256.5,307.1699,260.5,297.1699,256.5,301.1699" style="stroke:#181818;stroke-width:1.0;"/><line style="stroke:#181818;stroke-width:1.0;" x1="91.5" x2="91.5" y1="95.2031" y2="141.8887"/><polygon fill="#181818" points="87.5,131.8887,91.5,141.8887,95.5,131.8887,91.5,135.8887" style="stroke:#181818;stroke-width:1.0;"/><line style="stroke:#181818;stroke-width:1.0;" x1="256.5" x2="256.5" y1="95.2031" y2="141.8887"/><polygon fill="#181818" points="252.5,131.8887,256.5,141.8887,260.5,131.8887,256.5,135.8887" style="stroke:#181818;stroke-width:1.0;"/><line style="stroke:#181818;stroke-width:1.0;" x1="174" x2="174" y1="46.0938" y2="93.7031"/><polygon fill="#181818" points="170,83.7031,174,93.7031,178,83.7031,174,87.7031" style="stroke:#181818;stroke-width:1.0;"/><!--SRC=[rL7B2i8m4Bpx5Ui7gEXHHH2V5r4KpsL9jsqWJMAIefzlDiKMBzuD8TdPcLaoP1WggWbEvyrnlLsFh49V8nJEr30UJ-9El1_CxvuSRD3J0fRB9e9CHB1Q3Kfd6Wk7T9e20ebAoqT3FkeIbmcZ58aWZOvo06-L3F46QAqtgKj5lH6c7wDFJ3BnckzUbfoiIGT-17MeLrpn2LiCoBp3PvR7kcUPWOipWZoFPX4BCjkrUkrUQbJTh8BHzxIS0eeg0T9vc-MJ3h14gNzbdFrpHgxRN-owRm00]--></g></svg>